<svg width="67" height="74" fill="none" xmlns="http://www.w3.org/2000/svg"><path opacity=".7" d="M62.012 17.168l-.372.518c.223-1.48-.075-3.552-.447-4.736-.52 1.924-1.489 3.626-2.829 5.254l-.074-.962c-1.563 2.442-3.499 4.44-5.658 5.402 0-.37-.074-.814-.223-1.11-2.829 3.7-9.678 2.812-8.934 10.286 1.564-.222 2.308 1.332.968 2.812-.595 0-1.19-.222-1.712-.518l.298-.444-1.191-.592c.297-.074.595-.222.893-.37-1.787-.888-1.191-2.59-3.276-3.478-.372-.37-.67-.888-.893-1.406a42.05 42.05 0 01-.223-1.258c0-.888 0-1.406.223-1.776l.15.222c.52-1.184 1.19-2.072 2.083-2.59 2.457.074 3.872-.074 4.318-1.554-.149.074-.223.074-.297.074-.075-.148-.15-.222-.224-.296.596-.222 1.49.148 1.712.148-.074-.74-.372-.962-.52-1.258l.818-.592c2.085.666 3.871-.888 5.137-.222l.447-1.554c-1.862-.888-2.978.296-4.542.296.447-.962.522-1.85.15-2.738l-1.638-.518c-2.01.592-1.936 2.442-1.192 3.7-.446.444-.893.666-1.19.814l-.522.074s-.074-.666-.968-.888v-.444c1.117-.888 1.191-1.776.968-2.294-.223-.518-.819-.814-1.34-.666l-.744.222-.075-.148c.075-.074.075-.148.075-.222a.564.564 0 00-.15-.37h.075l-.074-.296.298.074v-1.036l-.298.074.074-.296h-1.042l.075.296-.298-.074v1.036l.297-.074-.297.37h.149a.564.564 0 00-.15.37c0 .074 0 .222.075.296l-.074.148-.745-.222c-.52-.148-1.116.074-1.34.666-.223.518-.149 1.332.968 2.294v.592h-.819c-.893-.518-1.638-1.406-1.86-2.516.595-.074 1.041-.296 1.414-.666v-1.554c2.382-1.776 3.052-4.144.967-5.18-1.19-.592-2.68-.074-3.424.518-.149-.222-.372-.444-.596-.518 0-.222-.074-.444-.297-.666h.148l-.148-.518.52.148V5.624l-.52.148.148-.518h-1.637l.148.518-.52-.148v1.628l.52-.148-.148.518h.148a.935.935 0 00-.297.666v.074c-.15.074-.372.296-.521.444-.745-.592-2.234-1.11-3.35-.518-2.085 1.036-1.415 3.404.967 5.18v1.554c.373.37.894.592 1.415.666-.224 1.036-.968 1.924-1.861 2.516h-.82v-.666c1.117-.888 1.192-1.776.969-2.294-.224-.518-.82-.814-1.34-.666l-.745.222-.074-.148c.074-.074.074-.148.074-.222a.563.563 0 00-.149-.37h.075l-.075-.296.298.074v-1.036l-.298.074.075-.296h-1.043l.075.296-.298-.074v1.036l.298-.074v.296h.149a.563.563 0 00-.149.37c0 .074 0 .222.074.296l-.074.148-.744-.222c-.522-.148-1.117.074-1.34.666-.224.518-.15 1.332.967 2.294v.444c-.893.222-.968.962-.968.962h-.372a6.713 6.713 0 01-1.414-1.036c.744-1.332.744-2.96-1.191-3.552l-1.713.37c-.372.888-.297 1.702.15 2.664-1.564 0-2.68-1.184-4.542-.296l.447 1.554c1.265-.666 3.052.888 5.137.222l.819.592c-.298.37-.596.74-.67 1.406.52-.296 1.042-.37 1.86-.222-.297 0-.372.148-.372.222a.231.231 0 00.15.074c-.075 0-.299-.074-.522-.074.447 1.406 1.936 1.554 4.392 1.48.894.444 1.49 1.332 2.085 2.59l.149-.222c.149.444.223.888.223 1.776 0 .518-.074.888-.223 1.258-.298.518-.596 1.036-.894 1.406-2.084.888-1.489 2.59-3.275 3.404.298.222.521.37.893.37l-1.19.592.297.444c-.521.296-1.042.518-1.712.518-1.415-1.48-.67-2.96.967-2.812.745-7.474-6.104-6.512-8.933-10.286-.074.296-.149.74-.223 1.11-2.16-.962-4.095-2.96-5.658-5.402l-.074.962c-1.266-1.628-2.234-3.404-2.83-5.254-.372 1.184-.67 3.256-.446 4.736l-.372-.518c-.745 2.812-.67 4.662.893 7.104.223 1.554.893 3.108 1.638 4.292-.447-.074-.745-.148-1.191-.148.819 1.554 1.786 3.034 2.68 3.996l-1.266.37c1.117 1.702 2.382 2.812 3.871 3.774-.67.148-.967.37-1.489.74.968 1.036 1.787 1.554 3.127 1.924-1.042.37-1.489.814-1.787 1.628 1.34.444 2.83.74 4.318.666-.893.518-1.712 1.11-2.159 1.924l-.297-.148c-.15-.074-.224-.074-.373-.074-.297 0-.67.222-.744.518 0 .074-.075.148-.075.148v.148c-.074.074-.223.148-.297.222l-.373-.148c-.149-.074-.297-.074-.446-.074a.967.967 0 00-.894.592c-.223.518 0 1.036.447 1.332l.298.148h.074v.37l-.074.148c0 .074-.075.074-.075.148a1.022 1.022 0 000 .666c.075.222.224.37.447.518l.596.296-.15-.074.299.148 1.042.518.074.074c-.744.888-1.638 1.406-2.68 1.406h-.52l-.224-.148h-.075a4.752 4.752 0 01-1.34-.444l-.52-.296.148.592c.298 1.406 1.563 2.812 3.499 4.07 1.861 1.11 3.871 1.776 5.583 1.776.894 0 1.638-.222 2.16-.592l.52-.37-.595-.148c-.447-.148-.894-.37-1.191-.592l-.298-.074-.223-.222c-1.043-.962-1.043-2.368-.745-3.404h.075l1.042.518.297.148.075-.148 2.159 1.036c-.075 3.33-1.117 5.402-3.052 7.548h-.075c-.298.074-.52.37-.595.666l-.224.222h-.074a.783.783 0 00-.67-.37c-.075 0-.149 0-.223.074l-.373.148a.762.762 0 00-.446.37c-.075.148-.075.296-.075.518-.074 0-.223.074-.298.074-.149-.296-.446-.518-.744-.518-.075 0-.149 0-.298.074l-.223.074c-.447.148-.67.518-.521.962-.968.296-1.936.666-2.83.888.15 2.294.894 4.218 2.383 5.994 2.308-1.11 4.541-2.22 6.7-3.256a.57.57 0 00.372.148c.075 0 .15 0 .224-.074l.297-.074a2.402 2.402 0 001.043-.888c3.126-1.48 6.03-2.812 8.56-3.922.075.888.15 1.702.447 2.294.596-.222 1.117-.37 1.638-.814 0 .296.15.592.224.962l-1.117 1.184.744.74 1.117-1.036c.149.814 1.042 1.998 1.563 2.294.373-.296 1.34-1.554 1.564-2.294l1.116 1.036.745-.74-1.117-1.184c.149-.296.223-.592.223-.962.522.37 1.043.592 1.638.814.223-.592.372-1.332.447-2.294l.298.148.148-.148 5.36 2.59.447.222.15.222.074.074h.074l.744.37.224.074c.223.37.819 1.332 1.86 1.258.224 0 .373-.074.522-.148l.744.37.298.148.075-.148 2.754 1.258-.074.148.297.148 1.043.518.297.148.075-.148.819.37c-.224 0-.075 0 0 0 .297 0 .67-.222.744-.518 0-.074.075-.148.075-.148v-.148c.074-.074.223-.074.297-.222h.075l.447.222c.148.074.297.074.446.074a.967.967 0 00.893-.592c.224-.518 0-1.036-.446-1.332l-.372-.222v-.37l.074-.074c.075-.074.075-.074.075-.148a1.02 1.02 0 000-.666c-.075-.222-.298-.222-.447-.296l-.894-.444.075-.148-.298-.148-1.042-.518-.298-.148.075-.148c.149-.37-.15-.814-.373-.888l-.372-.148c-.372-.148-.819 0-.968.37l-.074.148-.298-.148.075-.222c.148-.37 0-.814-.447-1.036l-.372-.148c-.224-.074-.521 0-.67.074-2.234-2.368-3.425-4.366-3.574-6.956a227.532 227.532 0 0111.614-4.07c-.447-2.146-1.266-4.144-2.383-5.994l-1.042.592-.893-1.702c-.447.296-.893.518-1.415.814a6.609 6.609 0 00-1.637-1.184c1.489.074 3.052-.222 4.317-.666-.372-.74-.818-1.258-1.786-1.628 1.34-.37 2.233-.888 3.127-1.924-.522-.37-.82-.592-1.49-.74 1.49-.962 2.68-2.072 3.872-3.774l-1.266-.37c.894-.962 1.861-2.442 2.68-3.996-.447 0-.744 0-1.19.148.818-1.11 1.413-2.738 1.637-4.292 1.563-2.59 1.638-4.366.893-7.178zM40.35 49.58c-.075.074-.223.074-.298.148l.075-.518.223.37zm-7.37-33.596h1.042c.447 1.702 1.489 2.886 2.978 3.848 0 0-.968 1.406-2.68 1.998.149.222.223.222.447.37-.596.518-1.266 1.776-1.266 1.776v.074-.074s-.67-1.258-1.266-1.776c.15-.148.298-.148.447-.37-1.712-.592-2.68-1.998-2.68-1.998 1.489-.962 2.606-2.146 2.978-3.848zm-6.03 33.67l-.298-.074.223-.37.075.444zm-11.39-5.476c.595-.074 1.191-.148 1.712-.296a2.798 2.798 0 00-.744.888l-1.043-.444.075-.148zm5.732 14.356c1.042-1.184 2.01-2.442 2.606-4.81l2.754 1.258.447.222.149.222.074.074h.074l.373.222-2.606 1.258c-1.265.444-2.68 1.036-3.87 1.554zm24.492.074l-3.2-1.48-.447-.222-.15-.222-.074-.074h-.074l-1.564-.74c.894-.37 1.936-.74 2.978-1.184.596 1.48 1.415 2.812 2.531 3.922zm4.318-14.356l-.447-.444c.224.074.521.148.82.222-.15.074-.224.148-.373.222z" fill="#231F20"/><path d="M24.12 19.24c-.67-.074-1.415-.074-1.861.074-.596.148-1.042.444-1.266 1.184 1.861-.518 2.01.518 3.723.888-.522.222-1.862.222-2.606-.222.521.814 1.191 1.036 3.648.962-.82-.666-.372-2.146-1.638-2.886z" fill="#FCD015"/><path d="M22.482 20.942c.447.074.372.37 1.117.37-.149-.148-.819-.666-1.117-.37zm20.249-1.702c.67-.074 1.414-.074 1.861.074.596.148 1.042.444 1.266 1.184-1.861-.518-2.01.518-3.722.888.52.222 1.86.222 2.605-.222-.521.814-1.191 1.036-3.648.962.82-.666.447-2.146 1.638-2.886z" fill="#FCD015"/><path d="M44.443 20.942c-.446.074-.372.37-1.116.37.148-.148.819-.666 1.116-.37z" fill="#FCD015"/><path d="M33.425 53.65l2.085 4.218-1.787.74-2.01-4.292 1.712-.666zm-1.935 9.694l-.893.888.297.296.82-.814c0-.148-.15-.296-.224-.37zm4.094 0a.58.58 0 01-.297.296l.819.814.297-.296-.819-.814z" fill="#221F1F"/><path d="M25.088 17.538v.444c1.116-.074 2.01.074 3.052.148v-.592a10.543 10.543 0 00-3.052 0zm.149-2.442l-.298-.222c-.224 0-.447.148-.596.37-.67.814.224 1.702.67 2.072h.15c.223 0 .52-.074.744-.074 0-.888-.15-1.702-.67-2.146zm3.052-.222l-.298.222c-.521.444-.596 1.258-.67 2.146.223 0 .521.074.744.074h.15c.446-.37 1.34-1.258.67-2.072a.614.614 0 00-.596-.37zm-1.638-.148a.297.297 0 00.298-.296.297.297 0 00-.298-.296.297.297 0 00-.298.296c0 .164.134.296.298.296z" fill="#FFC112"/><path d="M26.13 17.168h1.042c0-.962.149-1.85.745-2.294l-.745.222-.149-.222c-.074.074-.223.074-.297.074-.15 0-.224-.074-.298-.074l-.15.222-.744-.222c.447.518.596 1.406.596 2.294zm.223-3.33h.521l-.074-.296.372.074v-.518l-.372.074.074-.296h-.52l.148.296-.372-.074v.518l.372-.074-.149.296zm14.964 3.626h-.075a7.822 7.822 0 00-1.861 0h-.074c-.15 0-.298 0-.447.074v.592c.968 0 1.861-.222 2.978-.148v-.444c-.224-.074-.373-.074-.521-.074zm1.265-2.294c-.149-.222-.372-.296-.595-.37l-.298.296c-.521.444-.596 1.258-.67 2.146.223 0 .52.074.744.074h.15c.446-.37 1.34-1.258.67-2.146zm-3.648-.074l-.297-.222c-.224 0-.447.074-.67.37-.67.814.223 1.702.67 2.072h.148c.224 0 .522-.074.745-.074 0-.888-.075-1.702-.596-2.146zm1.34-.37a.297.297 0 00.298-.296.297.297 0 00-.298-.296.297.297 0 00-.297.296c0 .164.133.296.297.296z" fill="#FFC112"/><path d="M39.828 15.17l-.745-.222c.596.444.745 1.332.745 2.294h1.042c0-.962.149-1.85.744-2.294l-.744.222-.149-.222c-.074.074-.223.074-.298.074-.149 0-.223-.074-.297-.074l-.298.222zm.223-1.332h.521l-.149-.296.372.074v-.518l-.372.074.15-.296h-.522l.075.296-.373-.074v.518l.373-.074-.075.296zm-10.869-3.774v.444l.372.148v-.37l-.372-.222zm4.243 2.442c-2.01 0-3.647.518-3.647 1.11v.962c.595-.592 2.159-.814 3.648-.814 1.488 0 2.977.296 3.647.814v-.962c0-.592-1.638-1.11-3.648-1.11zm1.862-1.998c.297-1.258 1.34-1.924 2.382-2.146-1.117-.222-2.382.296-2.829 1.036-.223.37-.372.814-.521 1.184.298-.148.67-.148.968-.074zm-3.723 0c.373-.074.67-.074.968.074-.149-.444-.298-.888-.521-1.258-.447-.666-1.712-1.258-2.829-1.036 1.042.296 2.085.962 2.382 2.22z" fill="#FFC112"/><path d="M29.927 14.874c.223.222.595.444 1.116.592.075-.37.075-.74.15-1.184-.596.148-1.043.37-1.266.592zm3.722-.888h-.447c0 .592-.074 1.184-.223 1.702h.893a50.79 50.79 0 01-.223-1.702zm2.084.296c0 .444.075.814.15 1.184.52-.148.892-.37 1.116-.592-.224-.222-.67-.444-1.266-.592zm-2.308-5.328c.37 0 .67-.298.67-.666 0-.368-.3-.666-.67-.666-.37 0-.67.298-.67.666 0 .368.3.666.67.666zm-.446-1.628h.819l-.224-.666.67.222v-.814l-.67.222.224-.666h-.82l.299.666-.745-.222v.814l.745-.222-.298.666zm4.392 3.33l.372-.148v-.444l-.297.222-.075.37z" fill="#FFC112"/><path d="M38.934 9.176c-.148-.296-.372-.444-.67-.592-1.116.074-2.382.666-2.68 2.146v.148l-.149-.074c-.446-.148-.818-.074-1.19.148-.075.296-.15.518-.15.666-.074.296-.372.444-.595.444-.223 0-.521-.222-.596-.444 0-.074-.074-.296-.149-.592-.297-.222-.744-.222-1.19-.148l-.15.074v-.148c-.297-1.48-1.488-2.072-2.68-2.146-.223.148-.446.37-.67.592-1.042 1.554.968 3.404 1.713 3.996.52-.666 2.159-.962 3.722-.962 1.638 0 3.276.37 3.722.962.67-.666 2.68-2.516 1.712-4.07zm-9.9 1.554l-.15-.074V9.62l.447.222.372.148.15.074V11.1l-.448-.222-.372-.148zm.67 1.776c-.15 0-.224-.074-.224-.222 0-.148.074-.222.223-.222.15 0 .224.074.224.222 0 .074-.075.222-.224.222zm1.116-.444c-.149 0-.223-.074-.223-.222 0-.148.074-.222.223-.222.149 0 .223.074.223.222 0 .074-.149.222-.223.222zm1.117-.296c-.15 0-.224-.074-.224-.222 0-.148.075-.222.224-.222.149 0 .223.074.223.222 0 .148-.074.222-.223.222zm3.052 0c-.15 0-.223-.074-.223-.222 0-.148.074-.222.223-.222.149 0 .223.074.223.222 0 .148-.149.222-.223.222zm1.117.296c-.15 0-.224-.074-.224-.222 0-.148.075-.222.224-.222.148 0 .223.074.223.222 0 .074-.075.222-.224.222zm1.116.444c-.149 0-.223-.074-.223-.222 0-.148.074-.222.223-.222.149 0 .224.074.224.222 0 .074-.075.222-.224.222zm-.149-1.406v-1.036l.15-.074.371-.148.447-.222v1.036l-.149.074-.372.148-.447.222z" fill="#FFC112"/><path d="M33.425 11.766a.371.371 0 00.373-.37.371.371 0 00-.373-.37.371.371 0 00-.372.37c0 .204.167.37.373.37zm-.446-.888c.149-.148.298-.148.447-.148.148 0 .372.074.446.148.075-.444.298-1.11.67-1.702 0 0 0-.074.075-.074 0-.222-.15-.37-.373-.518-.148.296-.446.592-.893.592a.967.967 0 01-.893-.592c-.15.074-.298.222-.298.444 0 .074.074.074.074.148.447.666.67 1.258.745 1.702z" fill="#FFC112"/><path d="M54.047 42.476c-7.37 3.922-13.847 7.548-20.473 10.804l.15.222v.074c6.7-2.886 13.772-6.068 21.067-9.694-.149-.444-.447-1.036-.744-1.406zM31.49 54.464l-.074-.148c-1.49.74-3.053 1.406-4.542 2.072 1.49-.592 3.053-1.184 4.616-1.924zm24.343-10.73c-6.997 3.478-14.442 6.882-21.96 10.138l1.711 3.552c7.445-3.108 15.038-6.068 22.334-8.51-.298-1.85-1.042-3.552-2.085-5.18zM18.388 59.94l.372 1.11c.074.222-.149.444-.149.74.075 1.036-.596 1.776-.596 1.776l-.372.296-.149-.444-.967-2.812c0 .074-.075.074-.15.074l.596 1.702c.224.74-.149 1.776-.223 1.776l-.149.296-.298-.074s-.744-.518-1.116-1.48c-.075-.148-.224-.148-.298-.296l-.372-1.184c-.075 0-.15.074-.298.074l.893 2.664.15.444h-.448c-.074 0-.893 0-1.563-.962-.074-.148-.447-.074-.521-.296l-.372-1.184c-.894.296-1.713.592-2.606.888.298 1.998.968 3.774 2.16 5.18a266.816 266.816 0 016.476-3.108c0-.074.074-.222.149-.37l.893-1.48s-.149-.444-.075-.962c.67.148 1.192.444 1.415.888a1.26 1.26 0 01-.075.888c4.095-1.924 8.338-3.774 12.582-5.55l-1.638-3.774c-4.392 1.85-8.859 3.626-13.251 5.18z" fill="#E0E0E0"/><path d="M17.494 54.316s-.074 0 0 0c-.744-.074-1.414-.148-2.084-.296l.074-.296c.522.148 1.043.222 1.638.296-1.042-.962-1.19-2.368-.819-3.774L13.4 48.84c-.893 1.258-2.084 1.776-3.499 1.554 1.266 1.332 2.68 2.368 4.392 2.96l-.074.296c-1.861-.666-3.425-1.776-4.765-3.33-.446-.074-.893-.296-1.34-.518.745 3.478 8.115 6.956 10.72 5.106a5.604 5.604 0 01-1.34-.592z" fill="#E2E2E2"/><path d="M11.613 44.4l-.372-.148c-.372-.148-.744 0-.893.296-.15.37 0 .74.297.888l.298.148c.15-.296.373-.444.67-.444a1.253 1.253 0 010-.74zM56.95 65.86l-.372-.222c-.15.222-.373.444-.67.444a.669.669 0 010 .74l.446.222c.373.148.745 0 .894-.296.149-.296 0-.74-.298-.888z" fill="#A5A5A5"/><path d="M54.082 62.692l-2.016 4.21 1.075.508 2.017-4.208-1.076-.51zM18.762 45.91l-2.017 4.21 1.075.509 2.017-4.209-1.075-.51zm-4.675-2.153l-2.016 4.208 1.075.51 2.017-4.21-1.076-.508zm8.47 3.973l4.838 7.474.745.37c.223-.074.372-.148.595-.296l-4.317-6.66-1.861-.888zm8.71 4.144l1.116 1.702c.298-.148.67-.296.968-.444l-.223-.37-1.861-.888zm4.466 5.772l.15.296-.299.148-.223.074.67 1.11 1.787.888-1.712-2.664a.57.57 0 01-.373.148zm4.169-1.702l4.84 7.474.744.37c-.224-.592 0-1.036.074-1.11l-3.797-5.846-1.86-.888zm10.199 4.81l-.298-.074-1.34 3.034-.149-.148-.595 1.258 1.042.518.596-1.258c-.075-.296-.298-1.036 0-1.628l.744-1.702z" fill="#939393"/><path d="M18.388 50.098l-.298.518 8.636 4.07-.67-.962-7.668-3.626zm6.253 1.406l-5.658-2.738-.52 1.036 7.295 3.478-1.117-1.776zm-1.489-2.294l-3.573-1.702-.447 1.036 5.211 2.442-1.19-1.776zm-.819-1.332l-.074-.074-2.308-1.11-.223.518 3.126 1.48-.52-.814zm-11.315-1.332l-.075.074c-.149.296 0 .592.298.74l.596.296.223-.518-.745-.37a1.026 1.026 0 00-.297-.222zm2.728 1.35l-.256.534 3.025 1.432.256-.535-3.025-1.431zm-2.505-2.164c-.149.296 0 .592.298.74l.744.37.447-1.036-.745-.37c-.297-.074-.67 0-.744.296zm3.107.905l-.48 1.002 3.024 1.432.48-1.002-3.024-1.432zm-2.437-2.163c-.149.296 0 .592.298.74l.67.296.447-1.036-.67-.222c-.298-.148-.596-.074-.745.222zm3.044.808l-.48 1.002 3.024 1.432.48-1.002-3.024-1.432zm-2.523-1.4c.15 0 .223 0 .372.074l.67.296.224-.518-.596-.296c-.298-.148-.595 0-.744.296.074.074.074.074.074.148zm2.9.609l-.256.535 3.024 1.432.257-.535-3.025-1.432zM37.594 59.2l.521.814.075.074 5.881 2.812-.596-.962-5.88-2.738zm11.786 5.55l-.257.534 2.756 1.305.256-.535-2.756-1.304zM31.564 52.836l-.595-.814-.075-.148-5.806-2.738.595.962 5.881 2.738zm24.642 11.026l-.894-.444-.223.518 1.042.518c.149.074.223.148.298.222l.074-.074c.15-.296 0-.592-.297-.74zm-1.489 3.404l-.968-.444-.298.518.819.37c.298.148.596 0 .744-.296 0-.074 0-.074.075-.148-.149.074-.298.074-.372 0zm.595-1.258l-.968-.444-.446 1.036.967.444c.298.148.596 0 .745-.296.074-.296 0-.592-.298-.74zm.67-1.258l-1.042-.518-.447 1.036 1.042.518c.298.148.596 0 .745-.296.149-.296 0-.592-.298-.74zM28.661 54.612l.744.37c.447-.222.894-.37 1.34-.592l-3.2-1.554 1.116 1.776zm-2.68-4.07l1.117 1.776 3.945 1.85a6.83 6.83 0 001.043-.518l-.224-.37-5.88-2.738zm8.785 7.918l.595.296-.298-.444-.297.148zm4.913-2.368a9.41 9.41 0 01-.745.222l1.266.592-.521-.814zm.819 1.332l-1.936-.888c-.447.222-.893.37-1.414.592l4.466 2.146-1.116-1.85zm1.489 2.294l-5.212-2.442c-.148.074-.223.074-.372.148l.82 1.332 5.806 2.738-1.042-1.776zm5.806.814l.298-.518-5.658-2.664.596.962 4.764 2.22zm-.074.37L43.4 58.756l1.117 1.776 3.2 1.48c0-.222.075-.444.075-.592-.074-.222-.223-.296-.074-.518zm-2.903.148l.893 1.406c.521-.444 1.265-.37 1.265-.37l-.223.74.223.444.968.444.224-.37a2.362 2.362 0 01-.373-.962l-2.977-1.332zm2.754 3.404l.223-.444-.595-.296.372.74zm4.467-2.59l-.298-.148-.298.592.372.148.224-.592zm-.373.814l-.297-.148-.15.296c-.074.148-.223 0-.52.592l.446.222.521-.962zm1.191 1.776l.447-.888c-.074.074-.298 0-.372.148-.149.222-.447.518-.521.518l.447.222zm-1.563.148h-.447l.15-.444.074-.148-.447-.296c-.372.444-.968.814-.968.814l2.68 1.258.447-1.036-.67-.296c-.447.074-.744.148-.819.148z" fill="#DBDBDB"/><path d="M33.574 59.792a2.154 2.154 0 00-2.158 2.146c0 1.184.967 2.146 2.158 2.146a2.154 2.154 0 002.16-2.146 2.154 2.154 0 00-2.16-2.146zm.522 1.332c.148 0 .148-.148.074-.222.074-.148.149 0 .149.074 0 0 .149 0 .149.074s-.075.074-.075.222c0 0-.149-.074-.074 0 0 0-.075 0-.075-.074s.075-.074.075-.148-.15-.074-.15-.074c.075.074.075.222-.073.148 0 0 0 .074 0 0zm-.224.74h-.521c.149-.148 0-.518-.298-.518-.074 0-.074.074-.074.074v-.074c0-.148.372-.074.52-.148 0 .074-.074.148-.074.148.075.074.15.222.224.444 0-.222.074-.37.223-.444-.074 0-.149-.074-.074-.148.149.074.52 0 .52.148v.074s0-.074-.074-.074c-.372 0-.595.37-.372.518zm.224-.37h-.15l.075-.074s.075 0 .075.074zm-.447.888s.074-.074.074 0-.074.074-.074.074l-.15-.444h.075s.075-.074.15 0v.074-.074.148c.074 0 .074 0 .074.074 0-.074-.075-.074-.075-.074-.074.148-.074.148-.074.222zm-.224-.148s0 .074 0 0c0 0-.074 0 0 0l-.074-.074s.075 0 .075.074c0-.074.074-.074.074-.074-.075 0-.149 0-.149-.074l.075-.074v-.074l.223.592h-.224s-.074 0-.074-.074v-.074s.075-.074.075-.148zm-.223-.74h-.149c0-.074 0-.074.075-.074 0 0 .074 0 .074.074zm.745-.666v.148-.148zm-.373-.222l.075.074-.075.074-.074-.074.074-.074zm-.446.222v.148-.148zm0 .148h.149c.074 0 .074 0 .074.074.075 0 .149-.074.149-.148l-.075-.074c-.074-.074 0-.148.075-.148l.074.148.075-.148c.074 0 .149.074.074.148l-.074.074c0 .074.074.148.149.148 0-.074 0-.074.074-.074l.075.074.074-.074c.075 0 .075 0 .075.074l-.075.074h-.149c-.149 0-.223-.074-.223-.148h-.15c0 .074-.074.148-.222.148h-.15s0-.074-.074-.074 0-.074.075-.074zm-.373 0c.075-.074.15-.222.15-.074-.075.074-.075.222.074.222-.15 0-.15-.074-.15-.148 0 0-.148 0-.148.074s.075.074.075.148c0 0 0 .074-.075.074 0-.074-.074-.074-.074 0 .074-.148-.075-.148-.075-.222.075-.074.224 0 .224-.074zm-.52.74c.074 0 .148 0 .074-.074-.075-.074-.15-.222-.075-.296 0 0 .224.074.15 0-.075-.148-.075-.296 0-.37 0 .074.297.444.595.666 0 0-.075.074-.075.148s.075.148.15.148h.148v.222c0-.074-.149-.148-.223-.148 0 .074-.075.148-.075.222-.074.074-.149.074-.223 0 0 0 .075-.148 0-.074-.074.074-.149 0-.223-.074.074 0 .074-.074 0-.074-.075 0-.224 0-.224-.148 0 0 .15-.074.075-.074 0 .148-.075.074-.075-.074zm2.084 1.184c-.075 0-.15 0-.15-.074-.073-.074-.148-.074-.297-.074.075-.074-.074-.148-.149-.074-.074 0-.074.074-.074.148.149 0 .372.148.372.222 0 .074 0 .074-.074.074 0-.148-.075-.148-.075 0 0 .074-.074.074-.074.148 0-.148-.075-.148-.075 0 0 .074-.074.074-.074.074l-.075-.074c0-.148-.074-.148-.074 0-.075 0-.075-.074-.075-.148 0-.148-.074-.148-.074 0-.074 0-.074-.074-.074-.074.074-.074.223-.222.372-.222 0-.074-.075-.148-.075-.148-.074-.074-.148 0-.148.074-.075 0-.224 0-.224.074l.075.074-.075-.074h-.074c-.075 0-.075-.074-.075-.074v-.074l-.297-.222h-.075s-.149 0-.149-.074h.075s-.075-.074 0-.074h.148v-.074c.075 0 .075.148.075.148s.074 0 0 .074l.298.296h.074c.075 0 .224 0 .224-.074-.15-.222 0-.37.074-.37v.148c0 .074.074.074.074.074h.075c.074 0 .149.074.149.074s.074-.074.149-.074h.074c.075 0 .075-.074.075-.074v-.148c.148 0 .297.148.074.37l.149.074c0-.074 0-.074.074-.074l.075.074.074-.074c.075 0 .075.074.075.148-.15 0-.224.074-.298.074zm-.075-.37h.15-.15zm.67-.814c0 .074-.074.222-.148.222-.15 0 0 .074.074.074 0 .074-.075.148-.223.148-.075 0-.075.074 0 .074-.075.074-.15.074-.224.074-.074 0 0 .074 0 .074-.074.074-.149.074-.223 0-.075-.074-.075-.148-.075-.222-.074 0-.148 0-.223.148v-.222h.149c.075 0 .149-.074.149-.148s0-.074-.075-.148c.298-.148.522-.592.596-.666.075.074.075.222 0 .37-.074.074.149 0 .149 0 .074.074 0 .222-.075.296-.074-.074.075-.074.15-.074z" fill="#D0D2D3"/><path d="M20.696 14.652c-.596.148-.82.222-1.192.37-.67 1.628.596 3.478 2.085 4.366.298-.148.893-.444 1.563-.37-1.712-1.036-3.126-2.516-2.456-4.366zm25.534 0c.596.148.819.222 1.191.37.596 1.628-.596 3.478-2.084 4.366-.298-.148-.894-.444-1.564-.37 1.787-1.036 3.127-2.516 2.457-4.366zm-26.726 3.182c-1.265 0-2.977-1.258-4.317-.444l.297 1.036c1.415-.592 2.68.888 4.765.37-.298-.37-.521-.666-.745-.962z" fill="#1FC150"/><path d="M21.142 16.946c.15.296.447.592.745.814.744-.962.52-2.886-.894-3.108v.074c-.149.296-.149.592-.223.814.447.37.521.888.372 1.406zm26.279.888c-.223.296-.447.666-.744.888 2.084.518 3.35-.962 4.764-.37l.298-1.036c-1.34-.74-3.052.518-4.318.518zm-1.638-.888c-.149-.444-.074-1.036.373-1.406 0-.222-.075-.518-.224-.814v-.074c-1.414.222-1.563 2.146-.893 3.108.298-.296.595-.518.744-.814zm-16.08 2.664c1.936-1.036 3.127-2.812 3.201-5.624-.52 0-1.042.074-1.489.148 0 1.85-.595 3.108-1.712 3.922.298-.074.521-.148.745-.222l.744-.37-.372.74c-.298.74-.67 1.184-1.117 1.406zm7.445 0c-.373-.222-.82-.666-1.117-1.332l-.372-.74.744.37c.224.074.447.148.745.222-1.117-.814-1.713-2.072-1.713-3.922-.446-.074-.893-.148-1.488-.148.148 2.738 1.34 4.588 3.2 5.55zm1.861 13.542l-.298-.222v-.814h-.744l-.224-.37c-.819-1.554-2.382-2.516-4.094-2.516h-.372c-1.713 0-3.35.962-4.095 2.516l-.223.37h-.67v.814l-.298.222c-2.084 1.554-3.275 3.922-3.275 6.438 0 2.516 1.19 4.884 3.275 6.438l.298.222v.814h.67l.223.37c.82 1.554 2.383 2.516 4.095 2.516h.372c1.712 0 3.35-.962 4.094-2.516l.224-.37h.744v-.814l.298-.222c2.084-1.554 3.276-3.922 3.276-6.438 0-2.516-1.192-4.81-3.276-6.438zM36.403 46.62h-5.955v-1.258h.447v-.666h.297v-.592h.521v-3.996h-.744v-2.072h.744v-.37h-.297v-.518h-.298v-1.11h.298v-.518h.372v-.37c-.521-.518-1.042-1.48-.521-2.146.52-.666 1.563-.222 1.563-.222v-.37h-.074l.074-.148-.149.074v-1.184l.149.074-.074-.148h1.19l-.074.148.15-.074v1.184l-.15-.074.075.148h-.075v.37s1.117-.444 1.564.222c.52.74 0 1.628-.447 2.146v.37h.372v.518h.372v1.11h-.297v.518h-.298v.37h.744v2.072h-.744v3.996h.52v.592h.299v.666h.446v1.258z" fill="#1FC150"/><path d="M32.011 34.78h.744c0-.666-.148-1.48-.52-1.85l-.224-.222c-.223 0-.372.074-.521.296-.447.666.149 1.48.521 1.776zm3.127.888h-3.425v.296h3.425v-.296zm.223.518h-3.945v.518h3.945v-.518zm-.521 1.332h-2.755v.518h2.755v-.518zm-.074-2.516h-2.68v.444h2.68v-.444zm0-.222c.372-.37.967-1.11.52-1.702-.148-.222-.297-.296-.52-.296l-.224.222c-.372.296-.52 1.184-.52 1.85h.744v-.074zm-1.564-2.812h.447l-.075-.296.224.074v-.37l-.224.074.075-.296h-.447l.075.296-.298-.074v.37l.298-.074-.075.296zm.223.74a.297.297 0 00.298-.296.297.297 0 00-.297-.296.297.297 0 00-.298.296c0 .164.133.296.297.296z" fill="#FFD400"/><path d="M32.979 34.78h.819c0-.74.149-1.628.595-1.998l-.595.222-.075-.222c-.074.074-.149.074-.297.074-.075 0-.224 0-.298-.074l-.075.222-.595-.222c.446.37.52 1.258.52 1.998zM35.138 37h-3.425v.296h3.425V37zm.149 7.4H31.49v.37h3.797v-.37zm.372.518h-4.467v.444h4.467v-.444zm.446.666h-5.36v.666h5.36v-.666zm-1.265-1.406V39.96h-2.755v4.144h2.755v.074zm-.67-3.774h.223v3.182h-.223v-3.182zm-.819 0h.223v3.182h-.223v-3.182zm-.819 0h.224v3.182h-.224v-3.182zm.075-1.332h.074v-.148l-.074.148z" fill="#FFD400"/><path d="M31.267 38.258v1.48h4.243v-1.48h-4.243zm.818 1.11c-.074 0-.149 0-.223-.074v-.148h.075l.074.074h.074c.075 0 .15 0 .15-.074s0-.074-.15-.074h-.074c.074 0 .074 0 .074-.074s-.074-.074-.074-.074h-.075v.074h-.074v-.148c.075 0 .149-.074.223-.074.15 0 .224.074.224.148s0 .148-.075.148c.075 0 .075.074.075.148s-.15.148-.224.148zm.968-.074h-.298v-.074h.075l-.075-.074h-.223v.074h.075v.074h-.224v-.074h.075l.223-.518h.074l.298.592zm.67.074H33.5l-.224-.296v.148h.075v.074h-.298v-.074h.075v-.444h-.075v-.074h.298v.074h-.075v.222l.15-.222v-.074h.223v.074h-.075l-.149.148.224.296.074.148c0-.074 0-.074 0 0zm.298 0c-.223 0-.298-.148-.298-.296 0-.222.075-.296.298-.296.223 0 .298.148.298.296s-.15.296-.298.296zm.968 0h-.298v-.074h.074v-.222h-.223v.148h.075v.074h-.298v-.074h.074v-.444h-.074v-.074h.297v.074h-.074v.148h.223v-.148h-.074v-.074h.298v.074h-.075v.444l.075.148c0-.074 0-.074 0 0z" fill="#FFD400"/><path d="M34.021 38.776c-.075 0-.149.074-.149.222 0 .148.075.222.149.222s.149-.148.149-.222c-.075-.074-.075-.222-.149-.222z" fill="#FFD400"/><path d="M50.175 60.458c.075 0 .075 0 0 0-.074-.222-.148-.296-.297-.444 0 .074.074.222 0 .296l.297.148zm-20.844 0c0 .666.075 1.332.223 1.998.522-.222 1.043-.444 1.49-.814a2.307 2.307 0 011.19-1.776c.075-.222.15-.518.224-.74l-3.127 1.332zm4.02-1.776l-.521.222c-.075.222-.149.518-.223.74.297-.074.595-.148.893-.148.298 0 .596.074.893.148l-.223-.888-.67.296-.149-.37zm1.489 1.11a2.307 2.307 0 011.191 1.776c.447.37.968.666 1.489.814.149-.74.298-1.406.223-1.998l-3.2-1.554c.074.37.148.666.297.962zm-2.382 4.366c.223.518.595 1.258 1.042 1.628.447-.37.893-1.11 1.117-1.628-.373.37-1.713.37-2.16 0zm-12.879-1.554l.298 1.406-.373-.518-.744 1.258c-.223.296-.075.518.223.37l.298-.074c.298-.074.745-.444.893-.814l.15-.222c.67-1.11-.745-1.406-.745-1.406zm-5.807.518l.67-.074-.595-1.776c-.075-.296-.373-.444-.67-.37l-.224.074c-.297.074-.446.37-.372.666l.372 1.184c.075.148.447.074.521.296.521.962 1.34.962 1.34.962l-.223-.74-.819-.222zm4.69-2.146l-.298-.962c-.074-.296-.372-.444-.67-.37l-.223.074c-.298.074-.447.37-.372.666l.521 1.628.744-.666-.595 1.036.074.148.224.74s.67-.888.52-1.628c-.148-.222.15-.37.075-.666zm-2.456-.37c-.075-.222-.373-.37-.596-.296l-.372.148c-.223.074-.372.37-.298.592l.447 1.332 1.042.518h-.67c.149.666.521.962.968 1.258 0 0 .372-.888.149-1.554l-.67-1.998zm31.266-1.332l.894.444a.934.934 0 011.042-.37l.223.074h.075c-1.638-1.924-2.68-3.774-2.904-6.142l-2.978 1.184c.15.444.373.888.596 1.332l.819-.962.223.222-.893 1.036.447.666.67-.814.223.222-.745.888c.15.222.298.444.522.592l.67-.74.223.222-.67.814c.372.518.893.962 1.563 1.332zm-29.554.074c.223 0 .446.148.595.296l2.085-.814c.372-.222.67-.518.968-.814l-.745-.888.223-.222.745.888c.149-.222.298-.37.52-.592l-.967-.962.224-.222.744.962.447-.666-.968-1.184.223-.222.893 1.036c.447-.888.745-1.702.82-2.442l-3.053-1.406c0 2.812-.968 5.106-2.754 7.252zM7.37 19.906v-.814l.521.666c.447.592.893 1.11 1.34 1.554a7.374 7.374 0 01-.595-2.368c-1.34-1.924-2.457-3.774-2.83-5.18-.818 3.848.224 6.438 1.936 8.51-.223-.74-.372-1.48-.372-2.368zm7.147 13.542c-.075-.074-.075-.148-.15-.222l-.446-.666.745.222c.52.148 1.116.222 1.786.222-1.19-.296-2.382-.888-3.2-2.22-2.085-.962-4.17-2.516-5.51-4.366-.52-.37-1.042-.74-1.489-1.258.894 3.848 4.69 7.178 8.264 8.288z" fill="#FFE000"/><path d="M15.633 30.34a5.54 5.54 0 01-2.68-2.294c-1.563-.814-3.35-2.146-4.466-4.07-.67-.518-1.266-1.11-1.936-1.85.149 3.774 3.276 6.66 6.477 8.214-.075-.074-.075-.148-.15-.296l-.297-.666.67.296c.819.37 1.638.518 2.382.666zm-2.456-5.18c-.075-.222-.075-.444-.15-.666l-.074-.666.521.37c.596.444 1.191.74 1.787 1.036-.521-.444-.968-1.184-1.042-2.22-2.606-1.258-3.797-2.812-5.435-4.736.224 3.404 2.16 5.328 4.393 6.882zm5.509 13.838c.297-.444.67-.814 1.116-1.036-.67.074-1.34.074-2.01.074-2.159 0-4.094-.444-5.732-1.258-.521.148-.968.296-1.415.592 1.49 1.628 4.542 2.294 8.04 1.628z" fill="#FFE000"/><path d="M20.993 39.738h-.595c-.521 0-1.042-.074-1.638-.148l-.447-.074.15-.222c-.82.148-1.639.222-2.457.222-.745 0-1.415-.074-2.085-.148-1.042.296-1.787.666-2.084 1.332 3.35.962 6.179.444 9.156-.962zm-.446-2.22h-.075c-.893 0-2.01-.148-3.35-.444L16.675 37l.224-.37c.074-.148.223-.296.298-.444-3.276-.148-5.956-1.332-8.04-3.552-.373.074-.67.222-.894.222 2.83 4.44 7.445 5.328 12.284 4.662z" fill="#FFE000"/><path d="M17.494 35.89c.15-.148.298-.296.447-.37-1.34-.296-2.382-.888-3.052-1.702-1.489-.37-3.127-1.184-4.541-2.368-1.042-.814-1.861-1.702-2.606-2.664-.372-.074-.744-.148-.968-.148 2.234 4.514 5.658 7.104 10.72 7.252z" fill="#FFE000"/><path d="M16.08 25.382c2.978 1.332 5.807 1.998 6.179 5.18-1.266-4.144-4.988-3.478-8.934-6.142.15 1.554 1.266 2.59 2.978 3.256 2.16.74 4.318 1.406 5.137 3.552-2.308-3.33-5.881-2.368-8.71-4.514a5.085 5.085 0 004.243 3.626c1.861.444 2.83.74 3.797 2.146-2.01-2.072-4.988-1.48-7.668-2.59 1.638 3.774 5.51 2.59 7.742 4.144-1.935-.888-4.615-.444-6.253-.962.819 1.258 2.159 1.924 3.648 2.22.819-.518 1.712-.518 2.68-.592.372 0 .819-.074 1.191-.074-1.117-1.184-.893-3.256 1.042-3.182.223-6.808-6.104-6.364-8.56-9.324-.224 1.85.67 2.812 1.488 3.256zm11.316-5.846c.744.296 2.307.444 3.2-1.406-.67.37-1.563.37-2.307.296-1.042-.074-2.085-.296-3.201-.222-.298 0-.82.296-.893.666 1.935-.37 2.456.37 3.2.666zm4.392 4.218c0 .592 0 1.184-.298 1.628l-.372.592-.15-.666-.223-.666c-.148.444-.297.888-.595 1.258l-.447.666-.074-.814c0-.148 0-.222-.075-.37a2.496 2.496 0 01-.446.888l-.075.148c-.074.518-.149 1.036-.223 1.332.67-.148 1.489-1.036 1.787-1.776.148.444.446 1.036.744 1.258.521-.592.67-1.332.819-2.22.298.444.67.592 1.34.666.67-.074 1.042-.296 1.34-.666.074.888.298 1.628.819 2.22.223-.222.595-.814.744-1.258.298.666 1.117 1.628 1.787 1.776-.075-.296-.149-.814-.223-1.332l-.075-.074a2.493 2.493 0 01-.447-.888c0 .074 0 .222-.074.37l-.149.74-.447-.666c-.297-.37-.446-.814-.595-1.258l-.223.666-.15.666-.372-.592c-.297-.444-.297-1.036-.297-1.628-.372.37-.82.666-1.191.888-.075.37-.298.74-.522 1.036-.223-.296-.372-.74-.52-1.036-.298-.222-.745-.518-1.117-.888z" fill="#FFE000"/><path d="M29.554 19.758c-1.265.666-2.307.148-2.903-.296-.744-.518-1.489-.518-2.233-.37 1.414.888.893 2.516 1.86 2.96.448.296 1.49.962 1.936 2.146.224-.37.447-1.702-.744-3.182.298.148.67.592.67.592.744.444 1.34.962 1.712 1.554.15-.888-.298-1.702-1.042-2.59 1.191 1.406 2.531 1.48 3.424 1.184-1.042-.074-2.159-1.11-2.68-1.998zm-4.466-.444c.223 0 .67-.074 1.34.296-.224.222-.745.592-1.34-.296z" fill="#FFE000"/><path d="M29.927 21.978c.149.37.223.814.149 1.332l-.15.814-.446-.666a3.975 3.975 0 00-1.117-1.11c.298.888.224 1.554.075 1.998.223.592.372 1.258.372 1.85.447-.666.596-1.332.596-2.072.223.518.372 1.036.446 1.628.447-.666.67-1.332.745-2.072.297.518.52 1.036.595 1.554.372-.518.224-1.48.15-2.294.52.592 1.34 1.332 1.86 1.554-.298-.814-.893-1.554-1.489-2.146-.074-.074-1.116.074-1.786-.37zm-2.383 7.474c-1.86.962-1.786 2.812-2.754 3.182.223.074.372.148.596.148.223-.222.372-.518.52-.814.596-.888 1.266-1.998 3.053-2.442 0-.074-.075-.148-.075-.222-.297.074-.52.148-.744.148h-.596zm-11.241-1.406c-1.489-.592-2.456-1.406-2.903-2.442-1.489-.888-2.755-1.998-3.722-3.404-.745-.666-1.34-1.406-2.01-2.22 0 3.774 2.456 6.216 5.062 7.622-.075-.222-.223-.518-.298-.74l-.223-.888.67.518c1.117.814 2.233 1.184 3.424 1.554z" fill="#FFE000"/><path d="M6.253 22.2v-.888l.596.666c.521.666 1.042 1.11 1.563 1.554l-.893-1.11a10.64 10.64 0 01-2.01-3.848l-.447-.888c-.819 3.922.596 5.846 2.234 7.77A7.013 7.013 0 016.253 22.2zm13.996 22.94c-.372.222-.745.37-1.191.518l.968.444c0-.222.148-.592.223-.962zm1.712 2.146l.298.148.223-.148.521.222v-1.332c-.297.37-.67.814-1.042 1.11zm2.606.962l.372.148.223.37.596.296c-.15-.592-.224-1.332-.224-1.998a7.477 7.477 0 01-.967 1.184zm-10.572-4.884l1.043.518c2.308-.074 4.169-1.036 6.03-2.22v-.074c0-.666.446-1.48.819-1.998-1.936 1.036-3.648 1.628-5.36 1.85-1.192.592-2.16 1.184-2.532 1.924zm45.04-23.606l.52-.666v.814c0 .888-.148 1.628-.372 2.368 1.713-2.072 2.755-4.662 1.936-8.51-.372 1.406-1.489 3.256-2.829 5.18-.074.888-.298 1.628-.596 2.368l1.34-1.554zm-5.435 11.1c-.819 1.332-2.01 1.85-3.201 2.22.67-.074 1.34-.074 1.786-.222l.745-.222-.447.666c-.074.074-.074.148-.149.222 3.574-1.11 7.37-4.44 8.19-8.214-.522.444-1.043.888-1.49 1.258-1.265 1.85-3.35 3.33-5.434 4.292z" fill="#FFE000"/><path d="M53.898 30.414c3.2-1.628 6.328-4.514 6.476-8.214-.595.74-1.265 1.332-1.935 1.85-1.117 1.924-2.978 3.182-4.467 4.07-.52.962-1.414 1.776-2.68 2.294.82-.148 1.564-.296 2.383-.592l.67-.296-.298.666c-.075 0-.075.148-.15.222zm-2.308-5.18c.595-.296 1.191-.592 1.787-1.036l.52-.37-.074.666c0 .222-.074.444-.149.666 2.308-1.48 4.17-3.478 4.318-6.808-1.563 1.924-2.754 3.478-5.434 4.736 0 .962-.447 1.702-.968 2.146zm-2.457 12.802c-.595 0-1.265 0-2.01-.074.373.222.745.592 1.117 1.036 3.499.666 6.551.074 8.04-1.554-.447-.296-.893-.518-1.415-.592-1.637.74-3.573 1.184-5.732 1.184z" fill="#FFE000"/><path d="M53.004 39.368c-.67.148-1.34.148-2.084.148a13.79 13.79 0 01-2.457-.222l.15.222-.447.074c-.596.148-1.117.148-1.638.148h-.596c2.904 1.406 5.807 1.924 9.082.962-.223-.666-.967-1.036-2.01-1.332zm-3.275-3.182c.074.148.223.296.298.444l.223.37-.447.074c-1.34.296-2.456.444-3.35.444h-.074c4.764.666 9.454-.222 12.283-4.588-.223-.074-.595-.148-.893-.222-2.159 2.146-4.839 3.33-8.04 3.478z" fill="#FFE000"/><path d="M56.652 31.524a14.09 14.09 0 01-4.54 2.368c-.745.814-1.788 1.406-3.053 1.702.149.148.298.222.447.37 5.062-.222 8.486-2.812 10.794-7.178-.223 0-.595.074-.968.148-.819.888-1.638 1.776-2.68 2.59z" fill="#FFE000"/><path d="M44.741 34.632c.447.074.819.074 1.191.074.968.074 1.861.074 2.68.592 1.49-.296 2.83-.962 3.648-2.22-1.638.518-4.243.074-6.253.962 2.233-1.554 6.104-.37 7.667-3.996-2.68 1.11-5.657.518-7.667 2.59.967-1.406 1.935-1.702 3.796-2.146 2.68-.444 3.871-2.294 4.244-3.626-2.83 2.146-6.403 1.184-8.71 4.514.893-2.22 2.977-2.886 5.136-3.552 1.712-.666 2.83-1.702 2.978-3.256-3.946 2.664-7.668 1.998-8.933 6.142.372-3.182 3.275-3.922 6.179-5.18.819-.518 1.637-1.48 1.488-3.256-2.456 2.886-8.784 2.516-8.56 9.324 2.084-.222 2.307 1.85 1.116 3.034zM39.53 19.536c.744-.37 1.265-1.036 3.201-.666-.074-.37-.521-.666-.893-.666-1.117-.074-2.16.148-3.201.222-.745.074-1.638.074-2.308-.296.893 1.85 2.456 1.702 3.2 1.406zm-4.02 3.404c-.075.814-.223 1.776.149 2.294.149-.518.372-1.11.595-1.554.075.74.298 1.406.745 2.072.074-.592.223-1.11.447-1.628 0 .74.148 1.48.595 2.072 0-.666.075-1.258.372-1.85-.149-.444-.223-1.11.075-1.998-.447.296-.82.74-1.117 1.11l-.447.666-.148-.814c-.075-.444 0-.888.148-1.332-.67.37-1.712.296-1.86.296a7.39 7.39 0 00-1.49 2.146c.67-.222 1.415-.888 1.936-1.48zm3.871 6.512l-.298.074h-.223c-.223 0-.521-.074-.745-.148 0 .074-.074.148-.074.222 1.787.37 2.457 1.48 3.052 2.442.15.296.372.592.521.814.224 0 .373-.074.596-.148-1.042-.444-.968-2.294-2.829-3.256z" fill="#FFE000"/><path d="M54.196 27.602c2.605-1.48 5.062-3.922 5.062-7.622-.67.888-1.34 1.554-2.01 2.22-.894 1.48-2.234 2.59-3.648 3.478-.447 1.036-1.415 1.776-2.829 2.368h-.074c1.116-.296 2.307-.666 3.35-1.48l.67-.518-.224.888c-.074.148-.223.37-.297.666z" fill="#FFE000"/><path d="M58.513 23.532a15.43 15.43 0 001.564-1.554l.595-.666v.888c-.074 1.184-.372 2.368-.968 3.404 1.638-1.998 3.053-3.848 2.234-7.77l-.447.888c-.372 1.406-1.042 2.664-2.01 3.848l-.968.962zM52.558 42.92c-.447-.518-1.266-.962-2.16-1.48-1.711-.222-3.424-.814-5.36-1.85.448.518.82 1.332.82 1.998v.074c1.638 1.036 3.275 1.85 5.21 2.072a9.552 9.552 0 011.49-.814zm-4.988 2.664l-.893-.444c.074.296.074.592.148.814.298-.074.522-.222.745-.37zm-2.754 1.554l-.894-.888c.075.518.075.962 0 1.332l.894-.444zm-3.723 1.924c.447-.222.894-.518 1.415-.74-.373-.444-.745-.814-1.043-1.258-.074.814-.148 1.48-.372 1.998zm8.561-4.588c-.223-.296-.446-.592-.744-.888-1.191-.37-2.233-1.036-3.35-1.702h-.447c-.67 0-1.414-.222-2.01-.592 0 .148-.074.222-.074.37 1.414 1.628 2.903 3.034 4.913 3.774.596-.37 1.191-.666 1.712-.962zm-3.126 1.702c0-.37-.075-.74-.224-1.184-1.265-.74-2.382-1.776-3.35-2.96l-.446 1.332c.595 1.406 1.414 2.59 2.605 3.626.447-.296.968-.518 1.415-.814zm-2.978-.37c-.521-.666-.893-1.406-1.191-2.146-.372.74-.819 1.406-1.415 1.998.447.888 1.043 1.702 1.787 2.516l.893-.444c.075-.518 0-1.184-.074-1.924zm-2.457.814c-.149-.222-.297-.444-.372-.666-.298.296-.595.592-.968.814V48.1l.894 1.11c.372-.592.52-1.48.446-2.59zm-2.456 1.554c-.224.296-.373.666-.67.888.223.37.52.814.819 1.184.223-.148.446-.222.67-.37.148-.37.297-.74.372-1.258a2.25 2.25 0 01-.373-.518h-.818v.074zm-.894 1.11c-.446.444-.968.888-1.563 1.184l.893.666c.373-.222.82-.37 1.191-.592 0-.222-.074-.37-.149-.592-.148-.222-.223-.444-.372-.666zm-1.116 2.072v-.148a5.21 5.21 0 01-.745-.592 6.313 6.313 0 01-1.786.444c.223.444.446.814.744 1.184l1.787-.888zm-2.829-.296h-.671c-.148.37-.446.74-.595 1.11l.82.37c.074-.148.148-.37.148-.518.074.296.149.518.223.814l.894-.444c-.298-.444-.596-.888-.82-1.332zm-3.499.222l.52.222.15-.074 1.19.592c.224-.296.448-.666.596-.962a7.891 7.891 0 01-1.786-.444c-.15.148-.447.518-.67.666zm.446-.814c-.595-.296-1.116-.666-1.563-1.184-.149.222-.223.444-.372.592 0 .148-.149.444-.149.518l1.415.666c.148-.074.446-.444.67-.592zm-2.456-2.294h-.745c-.149.148-.223.37-.372.518 0 .37.075.888.15 1.11l.967.444c.223-.296.595-.888.744-1.184-.298-.296-.52-.592-.744-.888zm-1.042-.296v-1.11a11.43 11.43 0 01-.968-.888c-.15.222-.298.518-.447.74-.074 1.036 0 2.072.298 2.664l.149.074c.298-.37.67-.962.893-1.332v-.148h.075zm-2.606-4.292c-.372.74-.744 1.48-1.265 2.22-.075.74-.15 1.406-.075 1.924l.968.444c.744-.814 1.34-1.628 1.787-2.516a9.316 9.316 0 01-1.415-2.072zm-.67-1.628c-1.042 1.184-2.159 2.294-3.424 3.034-.15.518-.298 1.11-.298 1.554l1.489.666c1.265-1.036 2.159-2.59 2.754-3.996-.223-.37-.372-.814-.52-1.258z" fill="#FFE000"/><path d="M23.897 41.588c0-.074-.075-.222-.075-.296-.67.37-1.34.666-2.084.666h-.447c-1.042.666-2.159 1.258-3.35 1.702-.372.444-.893.962-1.191 1.332l1.489.74c2.382-.814 4.169-2.368 5.658-4.144zm25.832-4.736c-1.936-2.96-4.392-.888-7.37-2.738-.224.148-.521.148-.894.222a8.694 8.694 0 011.564 3.626c.968 1.48 2.978 1.702 4.913 1.332-.67-1.11-1.563-1.48-2.605-1.702-1.192-.37-2.16-.814-2.457-2.072 1.042 2.146 4.169 1.85 6.849 1.332zm-4.243 4.736c0-.74-.596-1.776-1.043-2.072-.595-.222-.967-.518-1.265-.962.074.37.074.74.074 1.036 0 .444-.074.962-.149 1.406.82.444 1.638.666 2.383.592zm-23.078-2.072c-.447.37-.968 1.332-1.043 2.072.82.074 1.564-.148 2.383-.666-.075-.444-.075-.888-.075-1.332 0-.37 0-.814.075-1.184-.298.518-.67.814-1.34 1.11zm-.968-1.924c-1.042.222-1.936.666-2.606 1.702 2.01.37 4.095.148 5.063-1.48.223-1.258.819-2.442 1.563-3.478-.372 0-.67-.074-.893-.222-2.904 1.85-5.435-.222-7.37 2.738 2.68.592 5.806.888 6.774-1.332-.372 1.258-1.34 1.702-2.531 2.072zm18.313-5.18c.596.444 1.117 1.036 1.564 1.554.446 0 .819-.074 1.19-.296-2.01-.37-1.637-3.256-4.69-3.848l-.074.074c.298.296.596.666.82 1.11h1.19v1.406zm-14.07 1.628a7.752 7.752 0 011.564-1.554V31.08h1.042c.223-.444.52-.814.819-1.11l-.075-.074c-3.052.666-2.68 3.478-4.69 3.848.447.222.82.296 1.34.296zm3.499-4.81l.224.444c.297-.296.595-.518.967-.74-.074-.148-.074-.37-.074-.592-.372.444-.745.74-1.117.888zm7.519-.814c0 .222-.074.444-.074.592.372.222.67.444.967.74l.224-.444a3.293 3.293 0 01-1.117-.888zm-4.243-.222h.297c0-.074-.074-.222-.074-.296-.074.074-.149.222-.223.296zm2.01 0c-.075-.074-.15-.222-.224-.37 0 .148-.074.222-.074.296.074.074.223.074.298.074z" fill="#FFE000"/><path d="M38.041 28.046c-.595-.148-1.265-.74-1.638-1.332a3.285 3.285 0 01-.595.814l-.224.222-.223-.222c-.447-.518-.67-1.184-.819-1.85-.298.592-2.01.592-2.233 0a3.403 3.403 0 01-.819 1.85l-.223.222-.224-.222c-.223-.148-.372-.444-.595-.814-.447.592-1.117 1.258-1.638 1.332l-.223.074a4.41 4.41 0 01-.67 1.11c.818.148 2.01-.592 2.605-1.702 0 .592 0 .962.075 1.332.446-.222.893-.444 1.414-.518.298-.37.596-.888.67-1.554.149.74.223 1.11.372 1.406h.745c.149-.296.223-.74.372-1.406.074.666.372 1.184.67 1.554.521.148.968.296 1.414.518.075-.296.075-.666.075-1.332.67 1.11 1.786 1.85 2.605 1.702a4.41 4.41 0 01-.67-1.11l-.223-.074z" fill="#FFE000"/><path d="M38.413 47.878h1.043V46.62c2.158-1.628 3.573-4.144 3.573-7.03 0-2.812-1.415-5.402-3.574-7.03v-1.258h-1.042a5.377 5.377 0 00-4.764-2.886h-.372a5.377 5.377 0 00-4.765 2.886h-.968v1.258c-2.159 1.628-3.573 4.144-3.573 7.03 0 2.812 1.415 5.402 3.573 7.03v1.258h.968a5.377 5.377 0 004.765 2.886h.372a5.377 5.377 0 004.764-2.886zM33.65 50.32h-.372c-1.861 0-3.5-1.036-4.393-2.664l-.149-.222h-.818v-.962l-.15-.148c-2.158-1.628-3.35-4.07-3.35-6.66s1.266-5.032 3.35-6.66l.15-.148V31.82h.818l.15-.222c.893-1.628 2.53-2.664 4.392-2.664h.372c1.861 0 3.499 1.036 4.392 2.664l.149.222h.819v.962l.149.148c2.159 1.628 3.35 4.07 3.35 6.66s-1.266 5.032-3.35 6.66l-.15.148v.962h-.818l-.149.222c-.893 1.702-2.531 2.738-4.392 2.738zm4.54-29.6c-.744.888-1.191 1.702-1.042 2.59.372-.592.893-1.11 1.712-1.554 0 0 .372-.518.67-.592-1.191 1.48-.968 2.738-.745 3.182.447-1.258 1.49-1.924 1.936-2.146.968-.444.447-2.146 1.861-2.96-.819-.148-1.563-.148-2.233.37-.596.444-1.638.962-2.903.296-.522.814-1.638 1.924-2.606 2.072.819.148 2.159.074 3.35-1.258zm3.648-1.406c-.596.814-1.043.444-1.34.296.67-.296 1.042-.222 1.34-.296zm4.839 43.882l-.447.444.447-1.406s-1.49.148-.894 1.406l.075.222c.149.37.52.74.819.888l.223.148c.298.148.447 0 .298-.37l-.521-1.332zm6.774-1.776l-.223-.074c-.298-.148-.596 0-.745.296l-.819 1.702.67.148-.819.148-.297.74s.819.148 1.414-.814c.149-.222.447-.074.521-.222l.521-1.184c.15-.296.075-.592-.223-.74zm-3.797-.962c.15-.296 0-.592-.297-.74l-.224-.148c-.297-.148-.595 0-.744.296l-.447.888c-.149.296.15.444 0 .74-.223.74.372 1.628.372 1.628l.298-.74.075-.148-.447-1.036.67.666.744-1.406zm2.01.74c.075-.222 0-.518-.223-.592l-.372-.148c-.224-.074-.521 0-.596.222l-.819 1.85c-.297.666 0 1.628 0 1.628.447-.296.82-.592 1.043-1.184L50.1 62.9l1.042-.37.521-1.332z" fill="#FFE000"/></svg>