<svg width="45" height="41" viewBox="0 0 45 41" fill="none" xmlns="http://www.w3.org/2000/svg">
<path d="M44.25 39.25H39.75V11.5C39.75 11.0858 39.4142 10.75 39 10.75H26.25V1C26.25 0.585812 25.9142 0.25 25.5 0.25H6C5.58581 0.25 5.25 0.585812 5.25 1V39.25H0.75C0.335812 39.25 0 39.5858 0 40C0 40.4142 0.335812 40.75 0.75 40.75H44.25C44.6642 40.75 45 40.4142 45 40C45 39.5858 44.6642 39.25 44.25 39.25ZM24.75 39.25H6.75V1.75H24.75V39.25ZM38.25 39.25H26.25V12.25H38.25V39.25Z" fill="#03A06C"/>
<path d="M30 19.75H34.5C34.9142 19.75 35.25 19.4142 35.25 19V14.5C35.25 14.0858 34.9142 13.75 34.5 13.75H30C29.5858 13.75 29.25 14.0858 29.25 14.5V19C29.25 19.4142 29.5858 19.75 30 19.75ZM30.75 15.25H33.75V18.25H30.75V15.25Z" fill="#03A06C"/>
<path d="M30 27.25H34.5C34.9142 27.25 35.25 26.9142 35.25 26.5V22C35.25 21.5858 34.9142 21.25 34.5 21.25H30C29.5858 21.25 29.25 21.5858 29.25 22V26.5C29.25 26.9142 29.5858 27.25 30 27.25ZM30.75 22.75H33.75V25.75H30.75V22.75Z" fill="#03A06C"/>
<path d="M30 34.75H34.5C34.9142 34.75 35.25 34.4142 35.25 34V29.5C35.25 29.0858 34.9142 28.75 34.5 28.75H30C29.5858 28.75 29.25 29.0858 29.25 29.5V34C29.25 34.4142 29.5858 34.75 30 34.75ZM30.75 30.25H33.75V33.25H30.75V30.25Z" fill="#03A06C"/>
<path d="M17.25 19.75H21.75C22.1642 19.75 22.5 19.4142 22.5 19V14.5C22.5 14.0858 22.1642 13.75 21.75 13.75H17.25C16.8358 13.75 16.5 14.0858 16.5 14.5V19C16.5 19.4142 16.8358 19.75 17.25 19.75ZM18 15.25H21V18.25H18V15.25Z" fill="#03A06C"/>
<path d="M17.25 12.25H21.75C22.1642 12.25 22.5 11.9142 22.5 11.5V7C22.5 6.58581 22.1642 6.25 21.75 6.25H17.25C16.8358 6.25 16.5 6.58581 16.5 7V11.5C16.5 11.9142 16.8358 12.25 17.25 12.25ZM18 7.75H21V10.75H18V7.75Z" fill="#03A06C"/>
<path d="M17.25 27.25H21.75C22.1642 27.25 22.5 26.9142 22.5 26.5V22C22.5 21.5858 22.1642 21.25 21.75 21.25H17.25C16.8358 21.25 16.5 21.5858 16.5 22V26.5C16.5 26.9142 16.8358 27.25 17.25 27.25ZM18 22.75H21V25.75H18V22.75Z" fill="#03A06C"/>
<path d="M17.25 34.75H21.75C22.1642 34.75 22.5 34.4142 22.5 34V29.5C22.5 29.0858 22.1642 28.75 21.75 28.75H17.25C16.8358 28.75 16.5 29.0858 16.5 29.5V34C16.5 34.4142 16.8358 34.75 17.25 34.75ZM18 30.25H21V33.25H18V30.25Z" fill="#03A06C"/>
<path d="M9.75 19.75H14.25C14.6642 19.75 15 19.4142 15 19V14.5C15 14.0858 14.6642 13.75 14.25 13.75H9.75C9.33581 13.75 9 14.0858 9 14.5V19C9 19.4142 9.33581 19.75 9.75 19.75ZM10.5 15.25H13.5V18.25H10.5V15.25Z" fill="#03A06C"/>
<path d="M9.75 12.25H14.25C14.6642 12.25 15 11.9142 15 11.5V7C15 6.58581 14.6642 6.25 14.25 6.25H9.75C9.33581 6.25 9 6.58581 9 7V11.5C9 11.9142 9.33581 12.25 9.75 12.25ZM10.5 7.75H13.5V10.75H10.5V7.75Z" fill="#03A06C"/>
<path d="M9.75 27.25H14.25C14.6642 27.25 15 26.9142 15 26.5V22C15 21.5858 14.6642 21.25 14.25 21.25H9.75C9.33581 21.25 9 21.5858 9 22V26.5C9 26.9142 9.33581 27.25 9.75 27.25ZM10.5 22.75H13.5V25.75H10.5V22.75Z" fill="#03A06C"/>
<path d="M9.75 34.75H14.25C14.6642 34.75 15 34.4142 15 34V29.5C15 29.0858 14.6642 28.75 14.25 28.75H9.75C9.33581 28.75 9 29.0858 9 29.5V34C9 34.4142 9.33581 34.75 9.75 34.75ZM10.5 30.25H13.5V33.25H10.5V30.25Z" fill="#03A06C"/>
</svg>
