<svg width="67" height="74" viewBox="0 0 67 74" fill="none" xmlns="http://www.w3.org/2000/svg">
<path opacity="0.7" d="M62.0122 17.168L61.64 17.686C61.8633 16.206 61.5655 14.134 61.1933 12.95C60.6722 14.874 59.7044 16.576 58.3644 18.204L58.29 17.242C56.7266 19.684 54.7911 21.682 52.6322 22.644C52.6322 22.274 52.5578 21.83 52.4089 21.534C49.58 25.234 42.7311 24.346 43.4755 31.82C45.0389 31.598 45.7833 33.152 44.4433 34.632C43.8478 34.632 43.2522 34.41 42.7311 34.114L43.0289 33.67L41.8378 33.078C42.1355 33.004 42.4333 32.856 42.7311 32.708C40.9444 31.82 41.54 30.118 39.4555 29.23C39.0833 28.86 38.7855 28.342 38.5622 27.824C38.4878 27.454 38.4133 27.01 38.3389 26.566C38.3389 25.678 38.3389 25.16 38.5622 24.79L38.7111 25.012C39.2322 23.828 39.9022 22.94 40.7955 22.422C43.2522 22.496 44.6666 22.348 45.1133 20.868C44.9644 20.942 44.89 20.942 44.8155 20.942C44.7411 20.794 44.6666 20.72 44.5922 20.646C45.1878 20.424 46.0811 20.794 46.3044 20.794C46.23 20.054 45.9322 19.832 45.7833 19.536L46.6022 18.944C48.6866 19.61 50.4733 18.056 51.7389 18.722L52.1855 17.168C50.3244 16.28 49.2078 17.464 47.6444 17.464C48.0911 16.502 48.1655 15.614 47.7933 14.726L46.1555 14.208C44.1455 14.8 44.22 16.65 44.9644 17.908C44.5178 18.352 44.0711 18.574 43.7733 18.722L43.2522 18.796C43.2522 18.796 43.1778 18.13 42.2844 17.908V17.464C43.4011 16.576 43.4755 15.688 43.2522 15.17C43.0289 14.652 42.4333 14.356 41.9122 14.504L41.1678 14.726L41.0933 14.578C41.1678 14.504 41.1678 14.43 41.1678 14.356C41.1678 14.208 41.0933 14.06 41.0189 13.986H41.0933L41.0189 13.69L41.3166 13.764V12.728L41.0189 12.802L41.0933 12.506H40.0511L40.1255 12.802L39.8278 12.728V13.764L40.1255 13.69L39.8278 14.06H39.9766C39.9022 14.134 39.8278 14.282 39.8278 14.43C39.8278 14.504 39.8278 14.652 39.9022 14.726L39.8278 14.874L39.0833 14.652C38.5622 14.504 37.9666 14.726 37.7433 15.318C37.52 15.836 37.5944 16.65 38.7111 17.612V18.204C38.4133 18.204 38.1155 18.204 37.8922 18.204C36.9989 17.686 36.2544 16.798 36.0311 15.688C36.6266 15.614 37.0733 15.392 37.4455 15.022V13.468C39.8278 11.692 40.4978 9.32403 38.4133 8.28803C37.2222 7.69603 35.7333 8.21403 34.9889 8.80603C34.84 8.58403 34.6166 8.36203 34.3933 8.28803C34.3933 8.06603 34.3189 7.84403 34.0955 7.62203H34.2444L34.0955 7.10403L34.6166 7.25203V5.62403L34.0955 5.77203L34.2444 5.25403H32.6066L32.7555 5.77203L32.2344 5.62403V7.25203L32.7555 7.10403L32.6066 7.62203H32.7555C32.6066 7.77003 32.4578 7.99203 32.4578 8.28803V8.36203C32.3089 8.43603 32.0855 8.65803 31.9366 8.80603C31.1922 8.21403 29.7033 7.69603 28.5866 8.28803C26.5022 9.32403 27.1722 11.692 29.5544 13.468V15.022C29.9266 15.392 30.4478 15.614 30.9689 15.688C30.7455 16.724 30.0011 17.612 29.1078 18.204C28.8844 18.204 28.5866 18.204 28.2889 18.204V17.538C29.4055 16.65 29.48 15.762 29.2566 15.244C29.0333 14.726 28.4378 14.43 27.9166 14.578L27.1722 14.8L27.0978 14.652C27.1722 14.578 27.1722 14.504 27.1722 14.43C27.1722 14.282 27.0978 14.134 27.0233 14.06H27.0978L27.0233 13.764L27.3211 13.838V12.802L27.0233 12.876L27.0978 12.58H26.0555L26.13 12.876L25.8322 12.802V13.838L26.13 13.764V14.06H26.2789C26.2044 14.134 26.13 14.282 26.13 14.43C26.13 14.504 26.13 14.652 26.2044 14.726L26.13 14.874L25.3855 14.652C24.8644 14.504 24.2689 14.726 24.0455 15.318C23.8222 15.836 23.8966 16.65 25.0133 17.612V18.056C24.12 18.278 24.0455 19.018 24.0455 19.018H23.6733C23.3755 18.87 22.7055 18.426 22.2589 17.982C23.0033 16.65 23.0033 15.022 21.0678 14.43L19.3555 14.8C18.9833 15.688 19.0578 16.502 19.5044 17.464C17.9411 17.464 16.8244 16.28 14.9633 17.168L15.41 18.722C16.6755 18.056 18.4622 19.61 20.5466 18.944L21.3655 19.536C21.0678 19.906 20.77 20.276 20.6955 20.942C21.2166 20.646 21.7378 20.572 22.5566 20.72C22.2589 20.72 22.1844 20.868 22.1844 20.942C22.2589 21.016 22.3333 21.016 22.3333 21.016C22.2589 21.016 22.0355 20.942 21.8122 20.942C22.2589 22.348 23.7478 22.496 26.2044 22.422C27.0978 22.866 27.6933 23.754 28.2889 25.012L28.4378 24.79C28.5866 25.234 28.6611 25.678 28.6611 26.566C28.6611 27.084 28.5866 27.454 28.4378 27.824C28.14 28.342 27.8422 28.86 27.5444 29.23C25.46 30.118 26.0555 31.82 24.2689 32.634C24.5666 32.856 24.79 33.004 25.1622 33.004L23.9711 33.596L24.2689 34.04C23.7478 34.336 23.2266 34.558 22.5566 34.558C21.1422 33.078 21.8866 31.598 23.5244 31.746C24.2689 24.272 17.42 25.234 14.5911 21.46C14.5166 21.756 14.4422 22.2 14.3678 22.57C12.2089 21.608 10.2733 19.61 8.70998 17.168L8.63554 18.13C7.36998 16.502 6.4022 14.726 5.80665 12.876C5.43443 14.06 5.13665 16.132 5.35998 17.612L4.98776 17.094C4.24331 19.906 4.31776 21.756 5.88109 24.198C6.10443 25.752 6.77443 27.306 7.51887 28.49C7.0722 28.416 6.77443 28.342 6.32776 28.342C7.14665 29.896 8.11443 31.376 9.00776 32.338L7.7422 32.708C8.85887 34.41 10.1244 35.52 11.6133 36.482C10.9433 36.63 10.6455 36.852 10.1244 37.222C11.0922 38.258 11.9111 38.776 13.2511 39.146C12.2089 39.516 11.7622 39.96 11.4644 40.774C12.8044 41.218 14.2933 41.514 15.7822 41.44C14.8889 41.958 14.07 42.55 13.6233 43.364L13.3255 43.216C13.1766 43.142 13.1022 43.142 12.9533 43.142C12.6555 43.142 12.2833 43.364 12.2089 43.66C12.2089 43.734 12.1344 43.808 12.1344 43.808V43.956C12.06 44.03 11.9111 44.104 11.8366 44.178L11.4644 44.03C11.3155 43.956 11.1666 43.956 11.0178 43.956C10.6455 43.956 10.2733 44.178 10.1244 44.548C9.90109 45.066 10.1244 45.584 10.5711 45.88L10.8689 46.028H10.9433C10.9433 46.176 10.9433 46.25 10.9433 46.398L10.8689 46.546C10.8689 46.62 10.7944 46.62 10.7944 46.694C10.72 46.916 10.72 47.138 10.7944 47.36C10.8689 47.582 11.0178 47.73 11.2411 47.878L11.8366 48.174L11.6878 48.1L11.9855 48.248L13.0278 48.766L13.1022 48.84C12.3578 49.728 11.4644 50.246 10.4222 50.246C10.2733 50.246 10.1244 50.246 9.90109 50.246L9.67776 50.098H9.60331C9.15665 50.024 8.70998 49.876 8.26331 49.654L7.7422 49.358L7.89109 49.95C8.18887 51.356 9.45443 52.762 11.39 54.02C13.2511 55.13 15.2611 55.796 16.9733 55.796C17.8666 55.796 18.6111 55.574 19.1322 55.204L19.6533 54.834L19.0578 54.686C18.6111 54.538 18.1644 54.316 17.8666 54.094L17.5689 54.02L17.3455 53.798C16.3033 52.836 16.3033 51.43 16.6011 50.394H16.6755L17.7178 50.912L18.0155 51.06L18.09 50.912L20.2489 51.948C20.1744 55.278 19.1322 57.35 17.1966 59.496H17.1222C16.8244 59.57 16.6011 59.866 16.5266 60.162C16.4522 60.236 16.3778 60.31 16.3033 60.384C16.3033 60.384 16.3033 60.384 16.2289 60.384C16.08 60.162 15.8566 60.014 15.5589 60.014C15.4844 60.014 15.41 60.014 15.3355 60.088L14.9633 60.236C14.74 60.31 14.5911 60.458 14.5166 60.606C14.4422 60.754 14.4422 60.902 14.4422 61.124C14.3678 61.124 14.2189 61.198 14.1444 61.198C13.9955 60.902 13.6978 60.68 13.4 60.68C13.3255 60.68 13.2511 60.68 13.1022 60.754L12.8789 60.828C12.4322 60.976 12.2089 61.346 12.3578 61.79C11.39 62.086 10.4222 62.456 9.52887 62.678C9.67776 64.972 10.4222 66.896 11.9111 68.672C14.2189 67.562 16.4522 66.452 18.6111 65.416C18.6855 65.49 18.8344 65.564 18.9833 65.564C19.0578 65.564 19.1322 65.564 19.2066 65.49L19.5044 65.416C19.8766 65.268 20.3233 64.898 20.5466 64.528C23.6733 63.048 26.5766 61.716 29.1078 60.606C29.1822 61.494 29.2566 62.308 29.5544 62.9C30.15 62.678 30.6711 62.53 31.1922 62.086C31.1922 62.382 31.3411 62.678 31.4155 63.048L30.2989 64.232L31.0433 64.972L32.16 63.936C32.3089 64.75 33.2022 65.934 33.7233 66.23C34.0955 65.934 35.0633 64.676 35.2866 63.936L36.4033 64.972L37.1478 64.232L36.0311 63.048C36.18 62.752 36.2544 62.456 36.2544 62.086C36.7755 62.456 37.2966 62.678 37.8922 62.9C38.1155 62.308 38.2644 61.568 38.3389 60.606L38.6366 60.754L38.7855 60.606L44.1455 63.196L44.5922 63.418L44.7411 63.64L44.8155 63.714H44.89L45.6344 64.084L45.8578 64.158C46.0811 64.528 46.6766 65.49 47.7189 65.416C47.9422 65.416 48.0911 65.342 48.24 65.268L48.9844 65.638L49.2822 65.786L49.3566 65.638L52.1111 66.896L52.0366 67.044L52.3344 67.192L53.3766 67.71L53.6744 67.858L53.7489 67.71L54.5678 68.08C54.3444 68.08 54.4933 68.08 54.5678 68.08C54.8655 68.08 55.2378 67.858 55.3122 67.562C55.3122 67.488 55.3866 67.414 55.3866 67.414V67.266C55.4611 67.192 55.61 67.192 55.6844 67.044H55.7589L56.2055 67.266C56.3544 67.34 56.5033 67.34 56.6522 67.34C57.0244 67.34 57.3966 67.118 57.5455 66.748C57.7689 66.23 57.5455 65.712 57.0989 65.416L56.7266 65.194C56.7266 65.046 56.7266 64.972 56.7266 64.824L56.8011 64.75C56.8755 64.676 56.8755 64.676 56.8755 64.602C56.95 64.38 56.95 64.158 56.8755 63.936C56.8011 63.714 56.5778 63.714 56.4289 63.64L55.5355 63.196L55.61 63.048L55.3122 62.9L54.27 62.382L53.9722 62.234L54.0466 62.086C54.1955 61.716 53.8978 61.272 53.6744 61.198L53.3022 61.05C52.93 60.902 52.4833 61.05 52.3344 61.42L52.26 61.568L51.9622 61.42L52.0366 61.198C52.1855 60.828 52.0366 60.384 51.59 60.162L51.2178 60.014C50.9944 59.94 50.6966 60.014 50.5478 60.088C48.3144 57.72 47.1233 55.722 46.9744 53.132C50.4733 51.8 54.4189 50.394 58.5877 49.062C58.1411 46.916 57.3222 44.918 56.2055 43.068L55.1633 43.66L54.27 41.958C53.8233 42.254 53.3766 42.476 52.8555 42.772C52.4089 42.328 51.8133 41.884 51.2178 41.588C52.7066 41.662 54.27 41.366 55.5355 40.922C55.1633 40.182 54.7166 39.664 53.7489 39.294C55.0889 38.924 55.9822 38.406 56.8755 37.37C56.3544 37 56.0566 36.778 55.3866 36.63C56.8755 35.668 58.0666 34.558 59.2578 32.856L57.9922 32.486C58.8855 31.524 59.8533 30.044 60.6722 28.49C60.2255 28.49 59.9278 28.49 59.4811 28.638C60.3 27.528 60.8955 25.9 61.1189 24.346C62.6822 21.756 62.7566 19.98 62.0122 17.168ZM40.3489 49.58C40.2744 49.654 40.1255 49.654 40.0511 49.728L40.1255 49.21L40.3489 49.58ZM32.9789 15.984H33.5H34.0211C34.4678 17.686 35.51 18.87 36.9989 19.832C36.9989 19.832 36.0311 21.238 34.3189 21.83C34.4678 22.052 34.5422 22.052 34.7655 22.2C34.17 22.718 33.5 23.976 33.5 23.976V24.05V23.976C33.5 23.976 32.83 22.718 32.2344 22.2C32.3833 22.052 32.5322 22.052 32.6811 21.83C30.9689 21.238 30.0011 19.832 30.0011 19.832C31.49 18.87 32.6066 17.686 32.9789 15.984ZM26.9489 49.654L26.6511 49.58L26.8744 49.21L26.9489 49.654ZM15.5589 44.178C16.1544 44.104 16.75 44.03 17.2711 43.882C16.9733 44.104 16.6755 44.474 16.5266 44.77L15.4844 44.326L15.5589 44.178ZM21.2911 58.534C22.3333 57.35 23.3011 56.092 23.8966 53.724L26.6511 54.982L27.0978 55.204L27.2466 55.426L27.3211 55.5H27.3955L27.7678 55.722L25.1622 56.98C23.8966 57.424 22.4822 58.016 21.2911 58.534ZM45.7833 58.608L42.5822 57.128L42.1355 56.906L41.9866 56.684L41.9122 56.61H41.8378L40.2744 55.87C41.1678 55.5 42.21 55.13 43.2522 54.686C43.8478 56.166 44.6666 57.498 45.7833 58.608ZM50.1011 44.252C49.9522 44.104 49.8033 43.956 49.6544 43.808C49.8778 43.882 50.1755 43.956 50.4733 44.03C50.3244 44.104 50.25 44.178 50.1011 44.252Z" fill="#231F20"/>
<path d="M24.12 19.24C23.45 19.166 22.7055 19.166 22.2588 19.314C21.6633 19.462 21.2166 19.758 20.9933 20.498C22.8544 19.98 23.0033 21.016 24.7155 21.386C24.1944 21.608 22.8544 21.608 22.11 21.164C22.6311 21.978 23.3011 22.2 25.7577 22.126C24.9388 21.46 25.3855 19.98 24.12 19.24Z" fill="#FCD015"/>
<path d="M22.4822 20.942C22.9288 21.016 22.8544 21.312 23.5988 21.312C23.45 21.164 22.78 20.646 22.4822 20.942Z" fill="#FCD015"/>
<path d="M42.7311 19.24C43.4011 19.166 44.1455 19.166 44.5922 19.314C45.1878 19.462 45.6344 19.758 45.8578 20.498C43.9967 19.98 43.8478 21.016 42.1355 21.386C42.6567 21.608 43.9967 21.608 44.7411 21.164C44.22 21.978 43.55 22.2 41.0933 22.126C41.9122 21.46 41.54 19.98 42.7311 19.24Z" fill="#FCD015"/>
<path d="M44.4433 20.942C43.9966 21.016 44.071 21.312 43.3266 21.312C43.4755 21.164 44.1455 20.646 44.4433 20.942Z" fill="#FCD015"/>
<path d="M33.4255 53.65L35.5099 57.868L33.7233 58.608L31.7133 54.316L33.4255 53.65Z" fill="#221F1F"/>
<path d="M31.49 63.344L30.5967 64.232L30.8945 64.528L31.7133 63.714C31.7133 63.566 31.5645 63.418 31.49 63.344Z" fill="#221F1F"/>
<path d="M35.5844 63.344C35.51 63.492 35.4355 63.566 35.2866 63.64L36.1055 64.454L36.4033 64.158L35.5844 63.344Z" fill="#221F1F"/>
<path d="M25.0877 17.538V17.982C26.2044 17.908 27.0977 18.056 28.1399 18.13V17.538C27.1722 17.39 26.1299 17.39 25.0877 17.538Z" fill="#FFC112"/>
<path d="M25.2366 15.096L24.9388 14.874C24.7155 14.874 24.4922 15.022 24.3433 15.244C23.6733 16.058 24.5666 16.946 25.0133 17.316H25.1622C25.3855 17.316 25.6833 17.242 25.9066 17.242C25.9066 16.354 25.7577 15.54 25.2366 15.096Z" fill="#FFC112"/>
<path d="M28.2888 14.874L27.991 15.096C27.4699 15.54 27.3955 16.354 27.321 17.242C27.5444 17.242 27.8422 17.316 28.0655 17.316H28.2144C28.661 16.946 29.5544 16.058 28.8844 15.244C28.7355 14.948 28.5122 14.874 28.2888 14.874Z" fill="#FFC112"/>
<path d="M26.6511 14.726C26.8156 14.726 26.9489 14.5935 26.9489 14.43C26.9489 14.2666 26.8156 14.134 26.6511 14.134C26.4867 14.134 26.3533 14.2666 26.3533 14.43C26.3533 14.5935 26.4867 14.726 26.6511 14.726Z" fill="#FFC112"/>
<path d="M26.1299 17.168C26.2788 17.168 26.4277 17.168 26.651 17.168C26.7999 17.168 26.9488 17.168 27.1721 17.168C27.1721 16.206 27.321 15.318 27.9166 14.874L27.1721 15.096L27.0233 14.874C26.9488 14.948 26.7999 14.948 26.7255 14.948C26.5766 14.948 26.5021 14.874 26.4277 14.874L26.2788 15.096L25.5344 14.874C25.981 15.392 26.1299 16.28 26.1299 17.168Z" fill="#FFC112"/>
<path d="M26.3533 13.838H26.8744L26.7999 13.542L27.1722 13.616V13.098L26.7999 13.172L26.8744 12.876H26.3533L26.5022 13.172L26.1299 13.098V13.616L26.5022 13.542L26.3533 13.838Z" fill="#FFC112"/>
<path d="M41.3166 17.4641H41.2421C40.6466 17.3901 40.051 17.3901 39.381 17.4641H39.3066C39.1577 17.4641 39.0088 17.4641 38.8599 17.5381V18.1301C39.8277 18.1301 40.721 17.9081 41.8377 17.9821V17.5381C41.6144 17.4641 41.4655 17.4641 41.3166 17.4641Z" fill="#FFC112"/>
<path d="M42.5821 15.17C42.4332 14.948 42.2099 14.874 41.9866 14.8L41.6888 15.096C41.1677 15.54 41.0932 16.354 41.0188 17.242C41.2421 17.242 41.5399 17.316 41.7632 17.316H41.9121C42.3588 16.946 43.2521 16.058 42.5821 15.17Z" fill="#FFC112"/>
<path d="M38.9344 15.096L38.6366 14.874C38.4133 14.874 38.19 14.948 37.9666 15.244C37.2966 16.058 38.19 16.946 38.6366 17.316H38.7855C39.0089 17.316 39.3066 17.242 39.53 17.242C39.53 16.354 39.4555 15.54 38.9344 15.096Z" fill="#FFC112"/>
<path d="M40.2743 14.726C40.4388 14.726 40.5721 14.5935 40.5721 14.43C40.5721 14.2666 40.4388 14.134 40.2743 14.134C40.1099 14.134 39.9766 14.2666 39.9766 14.43C39.9766 14.5935 40.1099 14.726 40.2743 14.726Z" fill="#FFC112"/>
<path d="M39.8278 15.17L39.0833 14.948C39.6789 15.392 39.8278 16.28 39.8278 17.242C39.9766 17.242 40.1255 17.242 40.3489 17.242C40.4978 17.242 40.6467 17.242 40.87 17.242C40.87 16.28 41.0189 15.392 41.6144 14.948L40.87 15.17L40.7211 14.948C40.6466 15.022 40.4978 15.022 40.4233 15.022C40.2744 15.022 40.2 14.948 40.1255 14.948L39.8278 15.17Z" fill="#FFC112"/>
<path d="M40.0511 13.838H40.5722L40.4233 13.542L40.7955 13.616V13.098L40.4233 13.172L40.5722 12.876H40.0511L40.1255 13.172L39.7533 13.098V13.616L40.1255 13.542L40.0511 13.838Z" fill="#FFC112"/>
<path d="M29.1821 10.064V10.508L29.5544 10.656V10.286L29.1821 10.064Z" fill="#FFC112"/>
<path d="M33.4255 12.506C31.4155 12.506 29.7778 13.024 29.7778 13.616V14.578C30.3733 13.986 31.9367 13.764 33.4255 13.764C34.9144 13.764 36.4033 14.06 37.0733 14.578V13.616C37.0733 13.024 35.4355 12.506 33.4255 12.506Z" fill="#FFC112"/>
<path d="M35.2866 10.508C35.5844 9.25003 36.6266 8.58403 37.6689 8.36203C36.5522 8.14003 35.2866 8.65803 34.84 9.39803C34.6166 9.76803 34.4677 10.212 34.3188 10.582C34.6166 10.434 34.9889 10.434 35.2866 10.508Z" fill="#FFC112"/>
<path d="M31.5644 10.508C31.9366 10.434 32.2344 10.434 32.5321 10.582C32.3832 10.138 32.2344 9.69396 32.011 9.32396C31.5644 8.65796 30.2988 8.06596 29.1821 8.28796C30.2244 8.58396 31.2666 9.24996 31.5644 10.508Z" fill="#FFC112"/>
<path d="M29.9266 14.874C30.15 15.096 30.5222 15.318 31.0433 15.466C31.1177 15.096 31.1177 14.726 31.1922 14.282C30.5966 14.43 30.15 14.652 29.9266 14.874Z" fill="#FFC112"/>
<path d="M33.6488 13.986C33.5744 13.986 33.4999 13.986 33.4255 13.986C33.351 13.986 33.2766 13.986 33.2022 13.986C33.2022 14.578 33.1277 15.17 32.9788 15.688C33.1277 15.688 33.2766 15.688 33.4255 15.688C33.5744 15.688 33.7233 15.688 33.8722 15.688C33.7977 15.17 33.7233 14.652 33.6488 13.986Z" fill="#FFC112"/>
<path d="M35.7333 14.282C35.7333 14.726 35.8077 15.096 35.8822 15.466C36.4033 15.318 36.7755 15.096 36.9988 14.874C36.7755 14.652 36.3288 14.43 35.7333 14.282Z" fill="#FFC112"/>
<path d="M33.4255 8.95407C33.7955 8.95407 34.0955 8.65589 34.0955 8.28807C34.0955 7.92025 33.7955 7.62207 33.4255 7.62207C33.0555 7.62207 32.7555 7.92025 32.7555 8.28807C32.7555 8.65589 33.0555 8.95407 33.4255 8.95407Z" fill="#FFC112"/>
<path d="M32.9788 7.32602H33.7977L33.5744 6.66002L34.2444 6.88202V6.06802L33.5744 6.29002L33.7977 5.62402H32.9788L33.2766 6.29002L32.5322 6.06802V6.88202L33.2766 6.66002L32.9788 7.32602Z" fill="#FFC112"/>
<path d="M37.371 10.656L37.7433 10.508V10.064L37.4455 10.286L37.371 10.656Z" fill="#FFC112"/>
<path d="M38.9344 9.17598C38.7855 8.87998 38.5621 8.73198 38.2644 8.58398C37.1477 8.65798 35.8821 9.24998 35.5844 10.73V10.878L35.4355 10.804C34.9888 10.656 34.6166 10.73 34.2444 10.952C34.1699 11.248 34.0955 11.47 34.0955 11.618C34.021 11.914 33.7232 12.062 33.4999 12.062C33.2766 12.062 32.9788 11.84 32.9044 11.618C32.9044 11.544 32.8299 11.322 32.7555 11.026C32.4577 10.804 32.011 10.804 31.5644 10.878L31.4155 10.952V10.804C31.1177 9.32398 29.9266 8.73198 28.7355 8.65798C28.5121 8.80598 28.2888 9.02798 28.0655 9.24998C27.0232 10.804 29.0332 12.654 29.7777 13.246C30.2988 12.58 31.9366 12.284 33.4999 12.284C35.1377 12.284 36.7755 12.654 37.2221 13.246C37.8921 12.58 39.9021 10.73 38.9344 9.17598ZM29.0332 10.73L28.8844 10.656V10.434V10.064V9.61998L29.331 9.84198L29.7033 9.98998L29.8521 10.064V10.286V10.656V11.1L29.4055 10.878L29.0332 10.73ZM29.7033 12.506C29.5544 12.506 29.4799 12.432 29.4799 12.284C29.4799 12.136 29.5544 12.062 29.7033 12.062C29.8521 12.062 29.9266 12.136 29.9266 12.284C29.9266 12.358 29.8521 12.506 29.7033 12.506ZM30.8199 12.062C30.671 12.062 30.5966 11.988 30.5966 11.84C30.5966 11.692 30.671 11.618 30.8199 11.618C30.9688 11.618 31.0432 11.692 31.0432 11.84C31.0432 11.914 30.8944 12.062 30.8199 12.062ZM31.9366 11.766C31.7877 11.766 31.7132 11.692 31.7132 11.544C31.7132 11.396 31.7877 11.322 31.9366 11.322C32.0855 11.322 32.1599 11.396 32.1599 11.544C32.1599 11.692 32.0855 11.766 31.9366 11.766ZM34.9888 11.766C34.8399 11.766 34.7655 11.692 34.7655 11.544C34.7655 11.396 34.8399 11.322 34.9888 11.322C35.1377 11.322 35.2121 11.396 35.2121 11.544C35.2121 11.692 35.0632 11.766 34.9888 11.766ZM36.1055 12.062C35.9566 12.062 35.8821 11.988 35.8821 11.84C35.8821 11.692 35.9566 11.618 36.1055 11.618C36.2544 11.618 36.3288 11.692 36.3288 11.84C36.3288 11.914 36.2544 12.062 36.1055 12.062ZM37.2221 12.506C37.0732 12.506 36.9988 12.432 36.9988 12.284C36.9988 12.136 37.0732 12.062 37.2221 12.062C37.371 12.062 37.4455 12.136 37.4455 12.284C37.4455 12.358 37.371 12.506 37.2221 12.506ZM37.0732 11.1V10.656V10.286V10.064L37.2221 9.98998L37.5944 9.84198L38.041 9.61998V10.064V10.434V10.656L37.8921 10.73L37.5199 10.878L37.0732 11.1Z" fill="#FFC112"/>
<path d="M33.4255 11.766C33.6311 11.766 33.7977 11.6003 33.7977 11.396C33.7977 11.1917 33.6311 11.026 33.4255 11.026C33.2199 11.026 33.0533 11.1917 33.0533 11.396C33.0533 11.6003 33.2199 11.766 33.4255 11.766Z" fill="#FFC112"/>
<path d="M32.9788 10.878C33.1277 10.73 33.2766 10.73 33.4255 10.73C33.5744 10.73 33.7977 10.804 33.8721 10.878C33.9466 10.434 34.1699 9.76798 34.5421 9.17598C34.5421 9.17598 34.5421 9.10198 34.6166 9.10198C34.6166 8.87998 34.4677 8.73198 34.2444 8.58398C34.0955 8.87998 33.7977 9.17598 33.351 9.17598C32.9788 9.17598 32.6066 8.95398 32.4577 8.58398C32.3088 8.65798 32.1599 8.80598 32.1599 9.02798C32.1599 9.10198 32.2344 9.10198 32.2344 9.17598C32.681 9.84198 32.9044 10.434 32.9788 10.878Z" fill="#FFC112"/>
<path d="M54.0466 42.4761C46.6766 46.3981 40.2 50.0241 33.5744 53.2801L33.7233 53.5021V53.5761C40.4233 50.6901 47.4955 47.5081 54.7911 43.8821C54.6422 43.4381 54.3444 42.8461 54.0466 42.4761Z" fill="#E0E0E0"/>
<path d="M31.4899 54.464L31.4155 54.316C29.9266 55.056 28.3633 55.722 26.8744 56.388C28.3633 55.796 29.9266 55.204 31.4899 54.464Z" fill="#E0E0E0"/>
<path d="M55.8333 43.7341C48.8355 47.2121 41.3911 50.6161 33.8722 53.8721L35.5844 57.4241C43.0289 54.3161 50.6222 51.3561 57.9178 48.9141C57.62 47.0641 56.8755 45.3621 55.8333 43.7341Z" fill="#E0E0E0"/>
<path d="M18.3878 59.9401L18.76 61.0501C18.8344 61.2721 18.6111 61.4941 18.6111 61.7901C18.6855 62.8261 18.0155 63.5661 18.0155 63.5661L17.6433 63.8621L17.4944 63.4181L16.5266 60.6061C16.5266 60.6801 16.4522 60.6801 16.3778 60.6801L16.9733 62.3821C17.1966 63.1221 16.8244 64.1581 16.75 64.1581L16.6011 64.4541L16.3033 64.3801C16.3033 64.3801 15.5589 63.8621 15.1866 62.9001C15.1122 62.7521 14.9633 62.7521 14.8889 62.6041L14.5166 61.4201C14.4422 61.4201 14.3678 61.4941 14.2189 61.4941L15.1122 64.1581L15.2611 64.6021H14.8144C14.74 64.6021 13.9211 64.6021 13.2511 63.6401C13.1766 63.4921 12.8044 63.5661 12.73 63.3441L12.3578 62.1601C11.4644 62.4561 10.6455 62.7521 9.7522 63.0481C10.05 65.0461 10.72 66.8221 11.9111 68.2281C13.9955 67.1921 16.1544 66.1561 18.3878 65.1201C18.3878 65.0461 18.4622 64.8981 18.5366 64.7501L19.43 63.2701C19.43 63.2701 19.2811 62.8261 19.3555 62.3081C20.0255 62.4561 20.5466 62.7521 20.77 63.1961C20.8444 63.4181 20.8444 63.7881 20.6955 64.0841C24.79 62.1601 29.0333 60.3101 33.2766 58.5341L31.6389 54.7601C27.2466 56.6101 22.78 58.3861 18.3878 59.9401Z" fill="#E0E0E0"/>
<path d="M17.4944 54.316C17.4944 54.316 17.42 54.316 17.4944 54.316C16.75 54.242 16.08 54.168 15.41 54.02L15.4844 53.724C16.0056 53.872 16.5267 53.946 17.1222 54.02C16.08 53.058 15.9311 51.652 16.3033 50.246L13.4 48.84C12.5067 50.098 11.3156 50.616 9.90111 50.394C11.1667 51.726 12.5811 52.762 14.2933 53.354L14.2189 53.65C12.3578 52.984 10.7944 51.874 9.45444 50.32C9.00777 50.246 8.56111 50.024 8.11444 49.802C8.85889 53.28 16.2289 56.758 18.8344 54.908C18.3133 54.76 17.8667 54.538 17.4944 54.316Z" fill="#E2E2E2"/>
<path d="M11.6133 44.4L11.2411 44.252C10.8688 44.104 10.4966 44.252 10.3477 44.548C10.1988 44.918 10.3477 45.288 10.6455 45.436L10.9433 45.584C11.0922 45.288 11.3155 45.14 11.6133 45.14C11.5388 44.918 11.5388 44.622 11.6133 44.4Z" fill="#A5A5A5"/>
<path d="M56.9499 65.86L56.5777 65.638C56.4288 65.86 56.2055 66.082 55.9077 66.082C56.0566 66.304 56.0566 66.6 55.9077 66.822L56.3544 67.044C56.7266 67.192 57.0988 67.044 57.2477 66.748C57.3966 66.452 57.2477 66.008 56.9499 65.86Z" fill="#A5A5A5"/>
<path d="M54.0823 62.6923L52.0656 66.9012L53.1409 67.4103L55.1576 63.2015L54.0823 62.6923Z" fill="#939393"/>
<path d="M18.7618 45.9109L16.7451 50.1198L17.8205 50.6289L19.8372 46.42L18.7618 45.9109Z" fill="#939393"/>
<path d="M14.0873 43.7565L12.0706 47.9653L13.1459 48.4745L15.1626 44.2656L14.0873 43.7565Z" fill="#939393"/>
<path d="M22.5566 47.7301L27.3955 55.2041L28.14 55.5741C28.3633 55.5001 28.5122 55.4261 28.7355 55.2781L24.4178 48.6181L22.5566 47.7301Z" fill="#939393"/>
<path d="M31.2667 51.874L32.3833 53.576C32.6811 53.428 33.0533 53.28 33.3511 53.132L33.1278 52.762L31.2667 51.874Z" fill="#939393"/>
<path d="M35.7334 57.6461L35.8823 57.9421L35.5845 58.0901L35.3611 58.164L36.0311 59.2741L37.8178 60.1621L36.1056 57.498C36.0311 57.572 35.8823 57.6461 35.7334 57.6461Z" fill="#939393"/>
<path d="M39.9022 55.9441L44.7411 63.4181L45.4856 63.7881C45.2622 63.1961 45.4856 62.7521 45.56 62.6781L41.7633 56.8321L39.9022 55.9441Z" fill="#939393"/>
<path d="M50.1011 60.7541L49.8033 60.6801L48.4633 63.7141L48.3144 63.5661L47.7189 64.8241L48.7611 65.3421L49.3567 64.0841C49.2822 63.7881 49.0589 63.0481 49.3567 62.4561L50.1011 60.7541Z" fill="#939393"/>
<path d="M18.3878 50.098L18.09 50.616L26.7256 54.686L26.0556 53.724L18.3878 50.098Z" fill="#DBDBDB"/>
<path d="M24.6411 51.5041L18.9833 48.7661L18.4622 49.8021L25.7578 53.2801L24.6411 51.5041Z" fill="#DBDBDB"/>
<path d="M23.1521 49.2101L19.5788 47.5081L19.1321 48.5441L24.3433 50.9861L23.1521 49.2101Z" fill="#DBDBDB"/>
<path d="M22.3333 47.8781L22.2588 47.8041L19.9511 46.6941L19.7277 47.2121L22.8544 48.6921L22.3333 47.8781Z" fill="#DBDBDB"/>
<path d="M11.0177 46.546L10.9433 46.62C10.7944 46.916 10.9433 47.212 11.2411 47.36L11.8366 47.656L12.06 47.138L11.3155 46.768C11.2411 46.694 11.1666 46.62 11.0177 46.546Z" fill="#DBDBDB"/>
<path d="M13.7463 47.8956L13.4902 48.4301L16.5146 49.862L16.7707 49.3275L13.7463 47.8956Z" fill="#DBDBDB"/>
<path d="M11.2411 45.7321C11.0922 46.0281 11.2411 46.3241 11.5389 46.4721L12.2833 46.8421L12.73 45.8061L11.9855 45.4361C11.6878 45.3621 11.3155 45.4361 11.2411 45.7321Z" fill="#DBDBDB"/>
<path d="M14.3478 46.6373L13.8676 47.6394L16.892 49.0713L17.3722 48.0692L14.3478 46.6373Z" fill="#DBDBDB"/>
<path d="M11.9111 44.4741C11.7622 44.7701 11.9111 45.0661 12.2089 45.2141L12.8789 45.5101L13.3256 44.4741L12.6556 44.2521C12.3578 44.1041 12.06 44.1781 11.9111 44.4741Z" fill="#DBDBDB"/>
<path d="M14.955 45.2821L14.4748 46.2842L17.4992 47.7161L17.9793 46.714L14.955 45.2821Z" fill="#DBDBDB"/>
<path d="M12.4322 43.8821C12.5811 43.8821 12.6555 43.8821 12.8044 43.9561L13.4744 44.2521L13.6977 43.7341L13.1022 43.4381C12.8044 43.2901 12.5066 43.4381 12.3577 43.7341C12.4322 43.8081 12.4322 43.8081 12.4322 43.8821Z" fill="#DBDBDB"/>
<path d="M15.3322 44.4914L15.0761 45.0259L18.1005 46.4578L18.3566 45.9233L15.3322 44.4914Z" fill="#DBDBDB"/>
<path d="M37.5944 59.2001L38.1155 60.0141L38.19 60.0881L44.0711 62.9001L43.4755 61.9381L37.5944 59.2001Z" fill="#DBDBDB"/>
<path d="M49.3793 64.7497L49.1232 65.2841L51.8788 66.5887L52.1349 66.0543L49.3793 64.7497Z" fill="#DBDBDB"/>
<path d="M31.5644 52.8361L30.9688 52.0221L30.8944 51.8741L25.0877 49.1361L25.6833 50.0981L31.5644 52.8361Z" fill="#DBDBDB"/>
<path d="M56.2055 63.8621L55.3122 63.4181L55.0889 63.9361L56.1311 64.4541C56.28 64.5281 56.3544 64.6021 56.4289 64.6761L56.5033 64.6021C56.6522 64.3061 56.5033 64.0101 56.2055 63.8621Z" fill="#DBDBDB"/>
<path d="M54.7167 67.2661L53.7489 66.8221L53.4511 67.3401L54.27 67.7101C54.5678 67.8581 54.8656 67.7101 55.0144 67.4141C55.0144 67.3401 55.0144 67.3401 55.0889 67.2661C54.94 67.3401 54.7911 67.3401 54.7167 67.2661Z" fill="#DBDBDB"/>
<path d="M55.3122 66.0081L54.3444 65.5641L53.8978 66.6001L54.8655 67.0441C55.1633 67.1921 55.4611 67.0441 55.61 66.7481C55.6844 66.4521 55.61 66.1561 55.3122 66.0081Z" fill="#DBDBDB"/>
<path d="M55.9822 64.7501L54.94 64.2321L54.4933 65.2681L55.5355 65.7861C55.8333 65.9341 56.1311 65.7861 56.2799 65.4901C56.4288 65.1941 56.2799 64.8981 55.9822 64.7501Z" fill="#DBDBDB"/>
<path d="M28.6611 54.6121L29.4055 54.9821C29.8522 54.7601 30.2989 54.6121 30.7455 54.3901L27.5444 52.8361L28.6611 54.6121Z" fill="#DBDBDB"/>
<path d="M25.9811 50.5421L27.0977 52.3181L31.0433 54.1681C31.4155 54.0201 31.7133 53.8721 32.0855 53.6501L31.8622 53.2801L25.9811 50.5421Z" fill="#DBDBDB"/>
<path d="M34.7655 58.4601L35.361 58.7561L35.0633 58.3121L34.7655 58.4601Z" fill="#DBDBDB"/>
<path d="M39.6789 56.092C39.4556 56.166 39.2322 56.24 38.9344 56.314L40.2 56.906L39.6789 56.092Z" fill="#DBDBDB"/>
<path d="M40.4978 57.424L38.5622 56.536C38.1155 56.758 37.6689 56.906 37.1478 57.128L41.6144 59.274L40.4978 57.424Z" fill="#DBDBDB"/>
<path d="M41.9867 59.7181L36.7755 57.2761C36.6267 57.3501 36.5522 57.3501 36.4033 57.4241L37.2222 58.7561L43.0289 61.4941L41.9867 59.7181Z" fill="#DBDBDB"/>
<path d="M47.7933 60.5321L48.0911 60.0141L42.4333 57.3501L43.0288 58.3121L47.7933 60.5321Z" fill="#DBDBDB"/>
<path d="M47.7189 60.9021L43.4011 58.7561L44.5178 60.5321L47.7189 62.0121C47.7189 61.7901 47.7933 61.5681 47.7933 61.4201C47.7189 61.1981 47.57 61.1241 47.7189 60.9021Z" fill="#DBDBDB"/>
<path d="M44.8156 61.05L45.7089 62.456C46.23 62.012 46.9744 62.086 46.9744 62.086L46.7511 62.826L46.9744 63.27L47.9422 63.714L48.1655 63.344C48.0167 63.122 47.8678 62.826 47.7933 62.382L44.8156 61.05Z" fill="#DBDBDB"/>
<path d="M47.57 64.4541L47.7933 64.0101L47.1978 63.7141L47.57 64.4541Z" fill="#DBDBDB"/>
<path d="M52.0367 61.8641L51.7389 61.7161L51.4411 62.3081L51.8133 62.4561L52.0367 61.8641Z" fill="#DBDBDB"/>
<path d="M51.6644 62.678L51.3666 62.53L51.2177 62.826C51.1433 62.974 50.9944 62.826 50.6966 63.418L51.1433 63.64L51.6644 62.678Z" fill="#DBDBDB"/>
<path d="M52.8555 64.454L53.3022 63.566C53.2278 63.64 53.0044 63.566 52.93 63.714C52.7811 63.936 52.4833 64.232 52.4089 64.232L52.8555 64.454Z" fill="#DBDBDB"/>
<path d="M51.2921 64.6021H50.8455L50.9944 64.1581L51.0688 64.0101L50.6221 63.7141C50.2499 64.1581 49.6544 64.5281 49.6544 64.5281L52.3344 65.7861L52.781 64.7501L52.111 64.4541C51.6644 64.5281 51.3666 64.6021 51.2921 64.6021Z" fill="#DBDBDB"/>
<path d="M33.5744 59.792C32.3832 59.792 31.4155 60.754 31.4155 61.938C31.4155 63.122 32.3832 64.084 33.5744 64.084C34.7655 64.084 35.7332 63.122 35.7332 61.938C35.7332 60.754 34.7655 59.792 33.5744 59.792ZM34.0955 61.124C34.2444 61.124 34.2444 60.976 34.1699 60.902C34.2444 60.754 34.3188 60.902 34.3188 60.976C34.3188 60.976 34.4677 60.976 34.4677 61.05C34.4677 61.124 34.3932 61.124 34.3932 61.272C34.3932 61.272 34.2444 61.198 34.3188 61.272C34.3188 61.272 34.2444 61.272 34.2444 61.198C34.2444 61.124 34.3188 61.124 34.3188 61.05C34.3188 60.976 34.1699 60.976 34.1699 60.976C34.2444 61.05 34.2444 61.198 34.0955 61.124C34.0955 61.124 34.0955 61.198 34.0955 61.124ZM33.8721 61.864H33.351C33.4999 61.716 33.351 61.346 33.0532 61.346C32.9788 61.346 32.9788 61.42 32.9788 61.42V61.346C32.9788 61.198 33.351 61.272 33.4999 61.198C33.4999 61.272 33.4255 61.346 33.4255 61.346C33.4999 61.42 33.5744 61.568 33.6488 61.79C33.6488 61.568 33.7232 61.42 33.8721 61.346C33.7977 61.346 33.7232 61.272 33.7977 61.198C33.9466 61.272 34.3188 61.198 34.3188 61.346V61.42C34.3188 61.42 34.3188 61.346 34.2444 61.346C33.8721 61.346 33.6488 61.716 33.8721 61.864ZM34.0955 61.494C34.021 61.494 34.021 61.494 33.9466 61.494L34.021 61.42C34.021 61.42 34.0955 61.42 34.0955 61.494ZM33.6488 62.382C33.6488 62.382 33.7232 62.308 33.7232 62.382C33.7232 62.456 33.6488 62.456 33.6488 62.456L33.4999 62.012H33.5744C33.5744 62.012 33.6488 61.938 33.7232 62.012V62.086V62.012C33.7232 62.012 33.7232 62.012 33.7232 62.086V62.16C33.7977 62.16 33.7977 62.16 33.7977 62.234C33.7977 62.16 33.7232 62.16 33.7232 62.16C33.6488 62.308 33.6488 62.308 33.6488 62.382ZM33.4255 62.234C33.4255 62.234 33.4255 62.308 33.4255 62.234C33.4255 62.234 33.351 62.234 33.4255 62.234C33.351 62.16 33.351 62.16 33.351 62.16C33.351 62.16 33.4255 62.16 33.4255 62.234C33.4255 62.16 33.4999 62.16 33.4999 62.16C33.4255 62.16 33.351 62.16 33.351 62.086L33.4255 62.012V61.938L33.6488 62.53C33.5744 62.53 33.4999 62.53 33.4255 62.53C33.4255 62.53 33.351 62.53 33.351 62.456C33.351 62.456 33.351 62.456 33.351 62.382C33.351 62.382 33.4255 62.308 33.4255 62.234ZM33.2021 61.494C33.2021 61.494 33.1277 61.494 33.0532 61.494C33.0532 61.42 33.0532 61.42 33.1277 61.42C33.1277 61.42 33.2021 61.42 33.2021 61.494ZM33.9466 60.828V60.976V60.828ZM33.5744 60.606L33.6488 60.68L33.5744 60.754L33.4999 60.68L33.5744 60.606ZM33.1277 60.828V60.976V60.828ZM33.1277 60.976H33.2766C33.351 60.976 33.351 60.976 33.351 61.05C33.4255 61.05 33.4999 60.976 33.4999 60.902L33.4255 60.828C33.351 60.754 33.4255 60.68 33.4999 60.68L33.5744 60.828L33.6488 60.68C33.7232 60.68 33.7977 60.754 33.7232 60.828L33.6488 60.902C33.6488 60.976 33.7232 61.05 33.7977 61.05C33.7977 60.976 33.7977 60.976 33.8721 60.976L33.9466 61.05L34.021 60.976C34.0955 60.976 34.0955 60.976 34.0955 61.05L34.021 61.124H33.8721C33.7232 61.124 33.6488 61.05 33.6488 60.976H33.4999C33.4999 61.05 33.4255 61.124 33.2766 61.124H33.1277C33.1277 61.124 33.1277 61.05 33.0532 61.05C32.9788 61.05 33.0532 60.976 33.1277 60.976ZM32.7555 60.976C32.8299 60.902 32.9044 60.754 32.9044 60.902C32.8299 60.976 32.8299 61.124 32.9788 61.124C32.8299 61.124 32.8299 61.05 32.8299 60.976C32.8299 60.976 32.681 60.976 32.681 61.05C32.681 61.124 32.7555 61.124 32.7555 61.198C32.7555 61.198 32.7555 61.272 32.681 61.272C32.681 61.198 32.6066 61.198 32.6066 61.272C32.681 61.124 32.5321 61.124 32.5321 61.05C32.6066 60.976 32.7555 61.05 32.7555 60.976ZM32.2344 61.716C32.3088 61.716 32.3832 61.716 32.3088 61.642C32.2344 61.568 32.1599 61.42 32.2344 61.346C32.2344 61.346 32.4577 61.42 32.3832 61.346C32.3088 61.198 32.3088 61.05 32.3832 60.976C32.3832 61.05 32.681 61.42 32.9788 61.642C32.9788 61.642 32.9044 61.716 32.9044 61.79C32.9044 61.864 32.9788 61.938 33.0532 61.938C33.1277 61.938 33.1277 61.938 33.2021 61.938V62.16C33.2021 62.086 33.0532 62.012 32.9788 62.012C32.9788 62.086 32.9044 62.16 32.9044 62.234C32.8299 62.308 32.7555 62.308 32.681 62.234C32.681 62.234 32.7555 62.086 32.681 62.16C32.6066 62.234 32.5321 62.16 32.4577 62.086C32.5321 62.086 32.5321 62.012 32.4577 62.012C32.3832 62.012 32.2344 62.012 32.2344 61.864C32.2344 61.864 32.3832 61.79 32.3088 61.79C32.3088 61.938 32.2344 61.864 32.2344 61.716ZM34.3188 62.9C34.2444 62.9 34.1699 62.9 34.1699 62.826C34.0955 62.752 34.021 62.752 33.8721 62.752C33.9466 62.678 33.7977 62.604 33.7232 62.678C33.6488 62.678 33.6488 62.752 33.6488 62.826C33.7977 62.826 34.021 62.974 34.021 63.048C34.021 63.122 34.021 63.122 33.9466 63.122C33.9466 62.974 33.8721 62.974 33.8721 63.122C33.8721 63.196 33.7977 63.196 33.7977 63.27C33.7977 63.122 33.7232 63.122 33.7232 63.27C33.7232 63.344 33.6488 63.344 33.6488 63.344L33.5744 63.27C33.5744 63.122 33.4999 63.122 33.4999 63.27C33.4255 63.27 33.4255 63.196 33.4255 63.122C33.4255 62.974 33.351 62.974 33.351 63.122C33.2766 63.122 33.2766 63.048 33.2766 63.048C33.351 62.974 33.4999 62.826 33.6488 62.826C33.6488 62.752 33.5744 62.678 33.5744 62.678C33.4999 62.604 33.4255 62.678 33.4255 62.752C33.351 62.752 33.2021 62.752 33.2021 62.826L33.2766 62.9L33.2021 62.826H33.1277C33.0532 62.826 33.0532 62.752 33.0532 62.752V62.678L32.7555 62.456H32.681C32.681 62.456 32.5321 62.456 32.5321 62.382H32.6066C32.6066 62.382 32.5321 62.308 32.6066 62.308C32.681 62.308 32.7555 62.308 32.7555 62.308V62.234C32.8299 62.234 32.8299 62.382 32.8299 62.382C32.8299 62.382 32.9044 62.382 32.8299 62.456L33.1277 62.752H33.2021C33.2766 62.752 33.4255 62.752 33.4255 62.678C33.2766 62.456 33.4255 62.308 33.4999 62.308V62.456C33.4999 62.53 33.5744 62.53 33.5744 62.53H33.6488C33.7232 62.53 33.7977 62.604 33.7977 62.604C33.7977 62.604 33.8721 62.53 33.9466 62.53H34.021C34.0955 62.53 34.0955 62.456 34.0955 62.456V62.308C34.2444 62.308 34.3932 62.456 34.1699 62.678L34.3188 62.752C34.3188 62.678 34.3188 62.678 34.3932 62.678L34.4677 62.752L34.5421 62.678C34.6166 62.678 34.6166 62.752 34.6166 62.826C34.4677 62.826 34.3932 62.9 34.3188 62.9ZM34.2444 62.53H34.3932H34.2444ZM34.9144 61.716C34.9144 61.79 34.8399 61.938 34.7655 61.938C34.6166 61.938 34.7655 62.012 34.8399 62.012C34.8399 62.086 34.7655 62.16 34.6166 62.16C34.5421 62.16 34.5421 62.234 34.6166 62.234C34.5421 62.308 34.4677 62.308 34.3932 62.308C34.3188 62.308 34.3932 62.382 34.3932 62.382C34.3188 62.456 34.2444 62.456 34.1699 62.382C34.0955 62.308 34.0955 62.234 34.0955 62.16C34.021 62.16 33.9466 62.16 33.8721 62.308V62.086C33.9466 62.086 34.021 62.086 34.021 62.086C34.0955 62.086 34.1699 62.012 34.1699 61.938C34.1699 61.864 34.1699 61.864 34.0955 61.79C34.3932 61.642 34.6166 61.198 34.691 61.124C34.7655 61.198 34.7655 61.346 34.691 61.494C34.6166 61.568 34.8399 61.494 34.8399 61.494C34.9144 61.568 34.8399 61.716 34.7655 61.79C34.691 61.716 34.8399 61.716 34.9144 61.716Z" fill="#D0D2D3"/>
<path d="M20.6956 14.652C20.1 14.8 19.8767 14.874 19.5045 15.022C18.8345 16.65 20.1 18.5 21.5889 19.388C21.8867 19.24 22.4822 18.944 23.1522 19.018C21.44 17.982 20.0256 16.502 20.6956 14.652Z" fill="#1FC150"/>
<path d="M46.23 14.652C46.8255 14.8 47.0489 14.874 47.4211 15.022C48.0167 16.65 46.8255 18.5 45.3367 19.388C45.0389 19.24 44.4433 18.944 43.7733 19.018C45.56 17.982 46.9 16.502 46.23 14.652Z" fill="#1FC150"/>
<path d="M19.5044 17.834C18.2389 17.834 16.5266 16.576 15.1866 17.39L15.4844 18.426C16.8989 17.834 18.1644 19.314 20.2489 18.796C19.9511 18.426 19.7278 18.13 19.5044 17.834Z" fill="#1FC150"/>
<path d="M21.1422 16.946C21.2911 17.242 21.5888 17.538 21.8866 17.76C22.6311 16.798 22.4077 14.874 20.9933 14.652V14.726C20.8444 15.022 20.8444 15.318 20.77 15.54C21.2166 15.91 21.2911 16.428 21.1422 16.946Z" fill="#1FC150"/>
<path d="M47.4211 17.8339C47.1977 18.1299 46.9744 18.4999 46.6766 18.7219C48.7611 19.2399 50.0266 17.7599 51.4411 18.3519L51.7389 17.3159C50.3989 16.5759 48.6866 17.8339 47.4211 17.8339Z" fill="#1FC150"/>
<path d="M45.7833 16.946C45.6344 16.502 45.7089 15.91 46.1555 15.54C46.1555 15.318 46.0811 15.022 45.9322 14.726V14.652C44.5178 14.874 44.3689 16.798 45.0389 17.76C45.3367 17.464 45.6344 17.242 45.7833 16.946Z" fill="#1FC150"/>
<path d="M29.7033 19.61C31.6389 18.574 32.83 16.798 32.9044 13.986C32.3833 13.986 31.8622 14.06 31.4155 14.134C31.4155 15.984 30.82 17.242 29.7033 18.056C30.0011 17.982 30.2244 17.908 30.4478 17.834L31.1922 17.464L30.82 18.204C30.5222 18.944 30.15 19.388 29.7033 19.61Z" fill="#1FC150"/>
<path d="M37.1477 19.6099C36.7755 19.3879 36.3288 18.9439 36.031 18.2779L35.6588 17.5379L36.4033 17.9079C36.6266 17.9819 36.8499 18.0559 37.1477 18.1299C36.031 17.3159 35.4355 16.0579 35.4355 14.2079C34.9888 14.1339 34.5422 14.0599 33.9466 14.0599C34.0955 16.7979 35.2866 18.6479 37.1477 19.6099Z" fill="#1FC150"/>
<path d="M39.0089 33.152L38.7111 32.93V32.116H37.9667L37.7434 31.746C36.9245 30.192 35.3611 29.23 33.6489 29.23H33.2767C31.5645 29.23 29.9267 30.192 29.1822 31.746L28.9589 32.116H28.2889V32.93L27.9911 33.152C25.9067 34.706 24.7156 37.074 24.7156 39.59C24.7156 42.106 25.9067 44.474 27.9911 46.028L28.2889 46.25V47.064H28.9589L29.1822 47.434C30.0011 48.988 31.5645 49.95 33.2767 49.95H33.6489C35.3611 49.95 36.9989 48.988 37.7434 47.434L37.9667 47.064H38.7111V46.25L39.0089 46.028C41.0934 44.474 42.2845 42.106 42.2845 39.59C42.2845 37.074 41.0934 34.78 39.0089 33.152ZM36.4034 46.62H30.4478V45.362H30.8945V44.696H31.1922V44.104H31.7134V40.108H30.9689V38.036H31.7134V37.666H31.4156V37.148H31.1178V36.038H31.4156V35.52H31.7878V35.15C31.2667 34.632 30.7456 33.67 31.2667 33.004C31.7878 32.338 32.83 32.782 32.83 32.782C32.83 32.708 32.83 32.486 32.83 32.412H32.7556L32.83 32.264L32.6811 32.338V31.154L32.83 31.228L32.7556 31.08H33.9467L33.8722 31.228L34.0211 31.154V32.338L33.8722 32.264L33.9467 32.412H33.8722C33.8722 32.486 33.8722 32.708 33.8722 32.782C33.8722 32.782 34.9889 32.338 35.4356 33.004C35.9567 33.744 35.4356 34.632 34.9889 35.15V35.52H35.3611V36.038H35.7334V37.148H35.4356V37.666H35.1378V38.036H35.8822V40.108H35.1378V44.104H35.6589V44.696H35.9567V45.362H36.4034V46.62Z" fill="#1FC150"/>
<path d="M32.011 34.78H32.7554C32.7554 34.114 32.6066 33.3 32.2343 32.93L32.011 32.708C31.7877 32.708 31.6388 32.782 31.4899 33.004C31.0432 33.67 31.6388 34.484 32.011 34.78Z" fill="#FFD400"/>
<path d="M35.1378 35.6681H31.7133V35.9641H35.1378V35.6681Z" fill="#FFD400"/>
<path d="M35.361 36.186H31.4155V36.704H35.361V36.186Z" fill="#FFD400"/>
<path d="M34.84 37.5181H32.0855V38.0361H34.84V37.5181Z" fill="#FFD400"/>
<path d="M34.7655 35.0021H32.0855V35.4461H34.7655V35.0021Z" fill="#FFD400"/>
<path d="M34.7655 34.7801C35.1377 34.4101 35.7333 33.6701 35.2866 33.0781C35.1377 32.8561 34.9888 32.7821 34.7655 32.7821L34.5422 33.0041C34.1699 33.3001 34.0211 34.1881 34.0211 34.8541H34.7655V34.7801Z" fill="#FFD400"/>
<path d="M33.2022 31.9681H33.6488L33.5744 31.6721L33.7977 31.7461V31.3761L33.5744 31.4501L33.6488 31.1541H33.2022L33.2766 31.4501L32.9788 31.3761V31.7461L33.2766 31.6721L33.2022 31.9681Z" fill="#FFD400"/>
<path d="M33.4255 32.7081C33.5899 32.7081 33.7232 32.5756 33.7232 32.4121C33.7232 32.2486 33.5899 32.1161 33.4255 32.1161C33.261 32.1161 33.1277 32.2486 33.1277 32.4121C33.1277 32.5756 33.261 32.7081 33.4255 32.7081Z" fill="#FFD400"/>
<path d="M32.9788 34.7801H33.7977C33.7977 34.0401 33.9466 33.1521 34.3933 32.7821L33.7977 33.0041L33.7233 32.7821C33.6488 32.8561 33.5744 32.8561 33.4255 32.8561C33.351 32.8561 33.2021 32.8561 33.1277 32.7821L33.0533 33.0041L32.4577 32.7821C32.9044 33.1521 32.9788 34.0401 32.9788 34.7801Z" fill="#FFD400"/>
<path d="M35.1378 37H31.7133V37.296H35.1378V37Z" fill="#FFD400"/>
<path d="M35.2866 44.4H31.4899V44.77H35.2866V44.4Z" fill="#FFD400"/>
<path d="M35.6588 44.9181H31.1921V45.3621H35.6588V44.9181Z" fill="#FFD400"/>
<path d="M36.1055 45.5841H30.7455V46.2501H36.1055V45.5841Z" fill="#FFD400"/>
<path d="M34.84 44.1781V39.9601H32.0855V44.1041H34.84V44.1781ZM34.17 40.4041H34.3933V43.5861H34.17V40.4041ZM33.3511 40.4041H33.5744V43.5861H33.3511V40.4041ZM32.5322 40.4041H32.7555V43.5861H32.5322V40.4041Z" fill="#FFD400"/>
<path d="M32.6066 39.0721H32.681V38.9241L32.6066 39.0721Z" fill="#FFD400"/>
<path d="M31.2665 38.2581V39.7381H35.5099V38.2581H31.2665ZM32.0854 39.3681C32.011 39.3681 31.9365 39.3681 31.8621 39.2941V39.1461C31.8621 39.1461 31.8621 39.1461 31.9365 39.1461L32.011 39.2201H32.0854C32.1599 39.2201 32.2343 39.2201 32.2343 39.1461C32.2343 39.0721 32.2343 39.0721 32.0854 39.0721H32.011C32.0854 39.0721 32.0854 39.0721 32.0854 38.9981C32.0854 38.9241 32.011 38.9241 32.011 38.9241H31.9365V38.9981H31.8621V38.8501C31.9365 38.8501 32.011 38.7761 32.0854 38.7761C32.2343 38.7761 32.3088 38.8501 32.3088 38.9241C32.3088 38.9981 32.3088 39.0721 32.2343 39.0721C32.3088 39.0721 32.3088 39.1461 32.3088 39.2201C32.3088 39.2941 32.1599 39.3681 32.0854 39.3681ZM33.0532 39.2941H32.7554C32.7554 39.2941 32.7554 39.2941 32.7554 39.2201H32.8299L32.7554 39.1461H32.5321V39.2201H32.6065C32.6065 39.2201 32.6065 39.2201 32.6065 39.2941H32.3832C32.3832 39.2941 32.3832 39.2941 32.3832 39.2201H32.4577L32.681 38.7021H32.7554L33.0532 39.2941ZM33.7232 39.3681H33.4999L33.2765 39.0721V39.2201H33.351C33.351 39.2201 33.351 39.2201 33.351 39.2941H33.0532C33.0532 39.2941 33.0532 39.2941 33.0532 39.2201H33.1277V38.7761H33.0532C33.0532 38.7761 33.0532 38.7761 33.0532 38.7021H33.351C33.351 38.7021 33.351 38.7021 33.351 38.7761H33.2765V38.9981L33.4254 38.7761C33.4254 38.7761 33.4254 38.7761 33.4254 38.7021H33.6488C33.6488 38.7021 33.6488 38.7021 33.6488 38.7761H33.5743L33.4254 38.9241L33.6488 39.2201L33.7232 39.3681C33.7232 39.2941 33.7232 39.2941 33.7232 39.3681ZM34.021 39.3681C33.7977 39.3681 33.7232 39.2201 33.7232 39.0721C33.7232 38.8501 33.7977 38.7761 34.021 38.7761C34.2443 38.7761 34.3188 38.9241 34.3188 39.0721C34.3188 39.2201 34.1699 39.3681 34.021 39.3681ZM34.9888 39.3681H34.691C34.691 39.3681 34.691 39.3681 34.691 39.2941H34.7654V39.0721H34.5421V39.2201H34.6165C34.6165 39.2201 34.6165 39.2201 34.6165 39.2941H34.3188C34.3188 39.2941 34.3188 39.2941 34.3188 39.2201H34.3932V38.7761H34.3188C34.3188 38.7761 34.3188 38.7761 34.3188 38.7021H34.6165C34.6165 38.7021 34.6165 38.7021 34.6165 38.7761H34.5421V38.9241H34.7654V38.7761H34.691C34.691 38.7761 34.691 38.7761 34.691 38.7021H34.9888C34.9888 38.7021 34.9888 38.7021 34.9888 38.7761H34.9143V39.2201L34.9888 39.3681C34.9888 39.2941 34.9888 39.2941 34.9888 39.3681Z" fill="#FFD400"/>
<path d="M34.021 38.7761C33.9465 38.7761 33.8721 38.8501 33.8721 38.9981C33.8721 39.1461 33.9465 39.2201 34.021 39.2201C34.0954 39.2201 34.1698 39.0721 34.1698 38.9981C34.0954 38.9241 34.0954 38.7761 34.021 38.7761Z" fill="#FFD400"/>
<path d="M50.1755 60.458C50.25 60.458 50.25 60.458 50.1755 60.458C50.1011 60.236 50.0266 60.162 49.8777 60.014C49.8777 60.088 49.9522 60.236 49.8777 60.31L50.1755 60.458Z" fill="#FFE000"/>
<path d="M29.3311 60.458C29.3311 61.124 29.4056 61.79 29.5544 62.456C30.0756 62.234 30.5967 62.012 31.0433 61.642C31.1178 60.902 31.5644 60.236 32.2344 59.866C32.3089 59.644 32.3833 59.348 32.4578 59.126L29.3311 60.458Z" fill="#FFE000"/>
<path d="M33.351 58.682L32.8299 58.904C32.7555 59.126 32.681 59.422 32.6066 59.644C32.9043 59.57 33.2021 59.496 33.4999 59.496C33.7977 59.496 34.0955 59.57 34.3932 59.644C34.3188 59.348 34.2443 59.052 34.1699 58.756L33.4999 59.052L33.351 58.682Z" fill="#FFE000"/>
<path d="M34.84 59.7921C35.51 60.1621 35.9567 60.8281 36.0311 61.5681C36.4778 61.9381 36.9989 62.2341 37.52 62.3821C37.6689 61.6421 37.8178 60.9761 37.7433 60.3841L34.5422 58.8301C34.6167 59.2001 34.6911 59.4961 34.84 59.7921Z" fill="#FFE000"/>
<path d="M32.4578 64.158C32.6811 64.676 33.0533 65.416 33.5 65.786C33.9467 65.416 34.3933 64.676 34.6166 64.158C34.2444 64.528 32.9044 64.528 32.4578 64.158Z" fill="#FFE000"/>
<path d="M19.5788 62.604L19.8766 64.01L19.5044 63.492L18.7599 64.75C18.5366 65.046 18.6855 65.268 18.9833 65.12L19.281 65.046C19.5788 64.972 20.0255 64.602 20.1744 64.232L20.3233 64.01C20.9933 62.9 19.5788 62.604 19.5788 62.604Z" fill="#FFE000"/>
<path d="M13.7722 63.122L14.4422 63.048L13.8467 61.272C13.7722 60.976 13.4744 60.828 13.1767 60.902L12.9533 60.976C12.6555 61.05 12.5067 61.346 12.5811 61.642L12.9533 62.826C13.0278 62.974 13.4 62.9 13.4744 63.122C13.9955 64.084 14.8144 64.084 14.8144 64.084L14.5911 63.344L13.7722 63.122Z" fill="#FFE000"/>
<path d="M18.4622 60.9761L18.1644 60.0141C18.09 59.7181 17.7922 59.5701 17.4944 59.6441L17.2711 59.7181C16.9733 59.7921 16.8244 60.0881 16.8989 60.3841L17.42 62.0121L18.1644 61.3461L17.5689 62.3821L17.6433 62.5301L17.8666 63.2701C17.8666 63.2701 18.5366 62.3821 18.3877 61.6421C18.2389 61.4201 18.5366 61.2721 18.4622 60.9761Z" fill="#FFE000"/>
<path d="M16.0056 60.606C15.9311 60.384 15.6333 60.236 15.41 60.31L15.0378 60.458C14.8145 60.532 14.6656 60.828 14.74 61.05L15.1867 62.382L16.2289 62.9H15.5589C15.7078 63.566 16.08 63.862 16.5267 64.158C16.5267 64.158 16.8989 63.27 16.6756 62.604L16.0056 60.606Z" fill="#FFE000"/>
<path d="M47.2722 59.274L48.1655 59.718C48.3144 59.496 48.6866 59.2 49.2077 59.348L49.4311 59.422C49.4311 59.422 49.4311 59.422 49.5055 59.422C47.8677 57.498 46.8255 55.648 46.6022 53.28L43.6244 54.464C43.7733 54.908 43.9966 55.352 44.2199 55.796L45.0388 54.834L45.2622 55.056L44.3688 56.092C44.5177 56.314 44.6666 56.536 44.8155 56.758L45.4855 55.944L45.7088 56.166L44.9644 57.054C45.1133 57.276 45.2622 57.498 45.4855 57.646L46.1555 56.906L46.3788 57.128L45.7088 57.942C46.0811 58.46 46.6022 58.904 47.2722 59.274Z" fill="#FFE000"/>
<path d="M17.7177 59.3481C17.941 59.3481 18.1644 59.4961 18.3133 59.6441L20.3977 58.8301C20.7699 58.6081 21.0677 58.3121 21.3655 58.0161L20.621 57.1281L20.8444 56.9061L21.5888 57.7941C21.7377 57.5721 21.8866 57.4241 22.1099 57.2021L21.1422 56.2401L21.3655 56.0181L22.1099 56.9801C22.2588 56.7581 22.4077 56.5361 22.5566 56.3141L21.5888 55.1301L21.8122 54.9081L22.7055 55.9441C23.1522 55.0561 23.4499 54.2421 23.5244 53.5021L20.4722 52.0961C20.4722 54.9081 19.5044 57.2021 17.7177 59.3481Z" fill="#FFE000"/>
<path d="M7.36997 19.906V19.092L7.89108 19.758C8.33775 20.35 8.78442 20.868 9.23108 21.312C8.9333 20.646 8.70997 19.832 8.63553 18.944C7.29553 17.02 6.17886 15.17 5.80664 13.764C4.98775 17.612 6.02997 20.202 7.74219 22.274C7.51886 21.534 7.36997 20.794 7.36997 19.906Z" fill="#FFE000"/>
<path d="M14.5167 33.448C14.4422 33.374 14.4422 33.3 14.3678 33.226L13.9211 32.56L14.6656 32.782C15.1867 32.93 15.7822 33.004 16.4522 33.004C15.2611 32.708 14.07 32.116 13.2511 30.784C11.1667 29.822 9.08225 28.268 7.74225 26.418C7.22113 26.048 6.70002 25.678 6.25336 25.16C7.14669 29.008 10.9434 32.338 14.5167 33.448Z" fill="#FFE000"/>
<path d="M15.6332 30.34C14.3677 29.822 13.4744 28.934 12.9532 28.046C11.3899 27.232 9.60325 25.9 8.48658 23.976C7.81658 23.458 7.22103 22.866 6.55103 22.126C6.69991 25.9 9.82658 28.786 13.0277 30.34C12.9532 30.266 12.9532 30.192 12.8788 30.044L12.581 29.378L13.251 29.674C14.0699 30.044 14.8888 30.192 15.6332 30.34Z" fill="#FFE000"/>
<path d="M13.1766 25.1601C13.1021 24.9381 13.1021 24.7161 13.0277 24.4941L12.9533 23.8281L13.4744 24.1981C14.0699 24.6421 14.6655 24.9381 15.261 25.2341C14.7399 24.7901 14.2933 24.0501 14.2188 23.0141C11.6133 21.7561 10.4221 20.2021 8.78436 18.2781C9.0077 21.6821 10.9433 23.6061 13.1766 25.1601Z" fill="#FFE000"/>
<path d="M18.6855 38.9981C18.9833 38.5541 19.3555 38.1841 19.8022 37.9621C19.1322 38.0361 18.4622 38.0361 17.7922 38.0361C15.6333 38.0361 13.6977 37.5921 12.06 36.7781C11.5388 36.9261 11.0922 37.0741 10.6455 37.3701C12.1344 38.9981 15.1866 39.6641 18.6855 38.9981Z" fill="#FFE000"/>
<path d="M20.9933 39.7381C20.8444 39.7381 20.6211 39.7381 20.3978 39.7381C19.8767 39.7381 19.3556 39.6641 18.76 39.5901L18.3133 39.5161L18.4622 39.2941C17.6433 39.4421 16.8244 39.5161 16.0056 39.5161C15.2611 39.5161 14.5911 39.4421 13.9211 39.3681C12.8789 39.6641 12.1344 40.0341 11.8367 40.7001C15.1867 41.6621 18.0156 41.1441 20.9933 39.7381Z" fill="#FFE000"/>
<path d="M20.5466 37.518H20.4722C19.5789 37.518 18.4622 37.37 17.1222 37.074L16.6755 37L16.8989 36.63C16.9733 36.482 17.1222 36.334 17.1966 36.186C13.9211 36.038 11.2411 34.854 9.15664 32.634C8.78442 32.708 8.48664 32.856 8.26331 32.856C11.0922 37.296 15.7078 38.184 20.5466 37.518Z" fill="#FFE000"/>
<path d="M17.4944 35.8901C17.6433 35.7421 17.7922 35.5941 17.9411 35.5201C16.6011 35.2241 15.5589 34.6321 14.8889 33.8181C13.4 33.4481 11.7622 32.6341 10.3477 31.4501C9.30552 30.6361 8.48663 29.7481 7.74219 28.7861C7.36997 28.7121 6.99775 28.6381 6.77441 28.6381C9.00775 33.1521 12.4322 35.7421 17.4944 35.8901Z" fill="#FFE000"/>
<path d="M16.08 25.382C19.0578 26.714 21.8866 27.38 22.2589 30.562C20.9933 26.418 17.2711 27.084 13.3255 24.42C13.4744 25.974 14.5911 27.01 16.3033 27.676C18.4622 28.416 20.6211 29.082 21.44 31.228C19.1322 27.898 15.5589 28.86 12.73 26.714C13.1022 28.046 14.3678 29.97 16.9733 30.34C18.8344 30.784 19.8022 31.08 20.77 32.486C18.76 30.414 15.7822 31.006 13.1022 29.896C14.74 33.67 18.6111 32.486 20.8444 34.04C18.9089 33.152 16.2289 33.596 14.5911 33.078C15.41 34.336 16.75 35.002 18.2389 35.298C19.0578 34.78 19.9511 34.78 20.9189 34.706C21.2911 34.706 21.7378 34.632 22.11 34.632C20.9933 33.448 21.2166 31.376 23.1522 31.45C23.3755 24.642 17.0478 25.086 14.5911 22.126C14.3678 23.976 15.2611 24.938 16.08 25.382Z" fill="#FFE000"/>
<path d="M27.3956 19.536C28.14 19.832 29.7033 19.98 30.5967 18.13C29.9267 18.5 29.0333 18.5 28.2889 18.426C27.2467 18.352 26.2045 18.13 25.0878 18.204C24.79 18.204 24.2689 18.5 24.1945 18.87C26.13 18.5 26.6511 19.24 27.3956 19.536Z" fill="#FFE000"/>
<path d="M31.7877 23.754C31.7877 24.346 31.7877 24.938 31.4899 25.382L31.1177 25.974L30.9688 25.308C30.8944 25.086 30.8199 24.864 30.7455 24.642C30.5966 25.086 30.4477 25.53 30.1499 25.9L29.7033 26.566L29.6288 25.752C29.6288 25.604 29.6288 25.53 29.5544 25.382C29.4799 25.678 29.331 25.974 29.1077 26.27L29.0333 26.418C28.9588 26.936 28.8844 27.454 28.8099 27.75C29.4799 27.602 30.2988 26.714 30.5966 25.974C30.7455 26.418 31.0433 27.01 31.341 27.232C31.8622 26.64 32.011 25.9 32.1599 25.012C32.4577 25.456 32.8299 25.604 33.4999 25.678C34.1699 25.604 34.5422 25.382 34.8399 25.012C34.9144 25.9 35.1377 26.64 35.6588 27.232C35.8822 27.01 36.2544 26.418 36.4033 25.974C36.701 26.64 37.5199 27.602 38.1899 27.75C38.1155 27.454 38.041 26.936 37.9666 26.418L37.8922 26.344C37.6688 26.048 37.5199 25.752 37.4455 25.456C37.4455 25.53 37.4455 25.678 37.371 25.826L37.2222 26.566L36.7755 25.9C36.4777 25.53 36.3288 25.086 36.1799 24.642C36.1055 24.864 36.031 25.086 35.9566 25.308L35.8077 25.974L35.4355 25.382C35.1377 24.938 35.1377 24.346 35.1377 23.754C34.7655 24.124 34.3188 24.42 33.9466 24.642C33.8722 25.012 33.6488 25.382 33.4255 25.678C33.2022 25.382 33.0533 24.938 32.9044 24.642C32.6066 24.42 32.1599 24.124 31.7877 23.754Z" fill="#FFE000"/>
<path d="M29.5544 19.758C28.2888 20.424 27.2466 19.906 26.6511 19.462C25.9066 18.944 25.1622 18.944 24.4177 19.092C25.8322 19.98 25.3111 21.608 26.2788 22.052C26.7255 22.348 27.7677 23.014 28.2144 24.198C28.4377 23.828 28.6611 22.496 27.4699 21.016C27.7677 21.164 28.1399 21.608 28.1399 21.608C28.8844 22.052 29.4799 22.57 29.8522 23.162C30.0011 22.274 29.5544 21.46 28.8099 20.572C30.0011 21.978 31.3411 22.052 32.2344 21.756C31.1922 21.682 30.0755 20.646 29.5544 19.758ZM25.0877 19.314C25.3111 19.314 25.7577 19.24 26.4277 19.61C26.2044 19.832 25.6833 20.202 25.0877 19.314Z" fill="#FFE000"/>
<path d="M29.9266 21.978C30.0755 22.348 30.15 22.792 30.0755 23.31L29.9266 24.124L29.4799 23.458C29.1822 23.014 28.8099 22.644 28.3633 22.348C28.6611 23.236 28.5866 23.902 28.4377 24.346C28.6611 24.938 28.8099 25.604 28.8099 26.196C29.2566 25.53 29.4055 24.864 29.4055 24.124C29.6288 24.642 29.7777 25.16 29.8522 25.752C30.2988 25.086 30.5222 24.42 30.5966 23.68C30.8944 24.198 31.1177 24.716 31.1922 25.234C31.5644 24.716 31.4155 23.754 31.3411 22.94C31.8622 23.532 32.6811 24.272 33.2022 24.494C32.9044 23.68 32.3088 22.94 31.7133 22.348C31.6388 22.274 30.5966 22.422 29.9266 21.978Z" fill="#FFE000"/>
<path d="M27.5444 29.4521C25.6833 30.4141 25.7577 32.2641 24.7899 32.6341C25.0133 32.7081 25.1621 32.7821 25.3855 32.7821C25.6088 32.5601 25.7577 32.2641 25.9066 31.9681C26.5021 31.0801 27.1721 29.9701 28.9588 29.5261C28.9588 29.4521 28.8844 29.3781 28.8844 29.3041C28.5866 29.3781 28.3632 29.4521 28.1399 29.4521C28.0655 29.4521 27.991 29.4521 27.9166 29.4521H27.5444Z" fill="#FFE000"/>
<path d="M16.3033 28.046C14.8144 27.454 13.8466 26.64 13.3999 25.604C11.9111 24.716 10.6455 23.606 9.67772 22.2C8.93328 21.534 8.33772 20.794 7.66772 19.98C7.66772 23.754 10.1244 26.196 12.7299 27.602C12.6555 27.38 12.5066 27.084 12.4322 26.862L12.2088 25.974L12.8788 26.492C13.9955 27.306 15.1122 27.676 16.3033 28.046Z" fill="#FFE000"/>
<path d="M6.25329 22.2V21.312L6.84885 21.978C7.36996 22.644 7.89107 23.088 8.41218 23.532L7.51885 22.422C6.55107 21.238 5.88107 19.906 5.50885 18.574C5.35996 18.278 5.21107 17.982 5.06218 17.686C4.24329 21.608 5.65774 23.532 7.29551 25.456C6.69996 24.494 6.32774 23.384 6.25329 22.2Z" fill="#FFE000"/>
<path d="M20.2488 45.14C19.8766 45.362 19.5044 45.51 19.0577 45.658L20.0255 46.102C20.0255 45.88 20.1744 45.51 20.2488 45.14Z" fill="#FFE000"/>
<path d="M21.9611 47.286L22.2589 47.434L22.4822 47.286L23.0033 47.508C23.0033 47.138 23.0033 46.62 23.0033 46.176C22.7056 46.546 22.3333 46.99 21.9611 47.286Z" fill="#FFE000"/>
<path d="M24.5667 48.2481L24.9389 48.3961L25.1622 48.7661L25.7578 49.0621C25.6089 48.4701 25.5344 47.7301 25.5344 47.0641C25.2367 47.5081 24.9389 47.8781 24.5667 48.2481Z" fill="#FFE000"/>
<path d="M13.9955 43.364L15.0377 43.882C17.3455 43.808 19.2066 42.846 21.0677 41.662V41.588C21.0677 40.922 21.5144 40.108 21.8866 39.59C19.951 40.626 18.2388 41.218 16.5266 41.44C15.3355 42.032 14.3677 42.624 13.9955 43.364Z" fill="#FFE000"/>
<path d="M59.0345 19.758L59.5556 19.092V19.906C59.5556 20.794 59.4067 21.534 59.1833 22.274C60.8956 20.202 61.9378 17.612 61.1189 13.764C60.7467 15.17 59.63 17.02 58.29 18.944C58.2156 19.832 57.9922 20.572 57.6945 21.312C58.1411 20.794 58.5878 20.276 59.0345 19.758Z" fill="#FFE000"/>
<path d="M53.5999 30.858C52.781 32.19 51.5899 32.708 50.3988 33.078C51.0688 33.004 51.7388 33.004 52.1855 32.856L52.9299 32.634L52.4833 33.3C52.4088 33.374 52.4088 33.448 52.3344 33.522C55.9077 32.412 59.7044 29.082 60.5233 25.308C60.0022 25.752 59.481 26.196 59.0344 26.566C57.7688 28.416 55.6844 29.896 53.5999 30.858Z" fill="#FFE000"/>
<path d="M53.8978 30.4141C57.0989 28.7861 60.2256 25.9001 60.3745 22.2001C59.7789 22.9401 59.1089 23.5321 58.4389 24.0501C57.3222 25.9741 55.4611 27.2321 53.9722 28.1201C53.4511 29.0821 52.5578 29.8961 51.2922 30.4141C52.1111 30.2661 52.8556 30.1181 53.6745 29.8221L54.3445 29.5261L54.0467 30.1921C53.9722 30.1921 53.9722 30.3401 53.8978 30.4141Z" fill="#FFE000"/>
<path d="M51.59 25.234C52.1855 24.938 52.7811 24.6421 53.3766 24.1981L53.8977 23.8281L53.8233 24.494C53.8233 24.716 53.7489 24.938 53.6744 25.16C55.9822 23.68 57.8433 21.682 57.9922 18.3521C56.4289 20.2761 55.2377 21.8301 52.5577 23.0881C52.5577 24.0501 52.1111 24.79 51.59 25.234Z" fill="#FFE000"/>
<path d="M49.1333 38.0361C48.5377 38.0361 47.8677 38.0361 47.1233 37.9621C47.4955 38.1841 47.8677 38.5541 48.24 38.9981C51.7388 39.6641 54.7911 39.0721 56.28 37.4441C55.8333 37.1481 55.3866 36.9261 54.8655 36.8521C53.2277 37.5921 51.2922 38.0361 49.1333 38.0361Z" fill="#FFE000"/>
<path d="M53.0044 39.3681C52.3344 39.5161 51.6644 39.5161 50.92 39.5161C50.1011 39.5161 49.2822 39.4421 48.4633 39.2941L48.6122 39.5161L48.1655 39.5901C47.57 39.7381 47.0489 39.7381 46.5277 39.7381C46.3044 39.7381 46.1555 39.7381 45.9322 39.7381C48.8355 41.1441 51.7389 41.6621 55.0144 40.7001C54.7911 40.0341 54.0466 39.6641 53.0044 39.3681Z" fill="#FFE000"/>
<path d="M49.7289 36.186C49.8033 36.334 49.9522 36.482 50.0266 36.63L50.25 37L49.8033 37.074C48.4633 37.37 47.3466 37.518 46.4533 37.518H46.3788C51.1433 38.184 55.8333 37.296 58.6622 32.93C58.4389 32.856 58.0666 32.782 57.7689 32.708C55.61 34.854 52.93 36.038 49.7289 36.186Z" fill="#FFE000"/>
<path d="M56.6522 31.524C55.2378 32.634 53.6 33.448 52.1111 33.892C51.3667 34.706 50.3245 35.298 49.0589 35.594C49.2078 35.742 49.3567 35.816 49.5056 35.964C54.5678 35.742 57.9922 33.152 60.3 28.786C60.0767 28.786 59.7045 28.86 59.3322 28.934C58.5133 29.822 57.6945 30.71 56.6522 31.524Z" fill="#FFE000"/>
<path d="M44.7411 34.632C45.1877 34.706 45.56 34.706 45.9322 34.706C46.9 34.78 47.7933 34.78 48.6122 35.298C50.1011 35.002 51.4411 34.336 52.26 33.078C50.6222 33.596 48.0166 33.152 46.0066 34.04C48.24 32.486 52.1111 33.67 53.6744 30.044C50.9944 31.154 48.0166 30.562 46.0066 32.634C46.9744 31.228 47.9422 30.932 49.8033 30.488C52.4833 30.044 53.6744 28.194 54.0466 26.862C51.2177 29.008 47.6444 28.046 45.3366 31.376C46.23 29.156 48.3144 28.49 50.4733 27.824C52.1855 27.158 53.3022 26.122 53.4511 24.568C49.5055 27.232 45.7833 26.566 44.5177 30.71C44.89 27.528 47.7933 26.788 50.6966 25.53C51.5155 25.012 52.3344 24.05 52.1855 22.274C49.7289 25.16 43.4011 24.79 43.6244 31.598C45.7089 31.376 45.9322 33.448 44.7411 34.632Z" fill="#FFE000"/>
<path d="M39.5299 19.536C40.2744 19.166 40.7955 18.5 42.731 18.87C42.6566 18.5 42.2099 18.204 41.8377 18.204C40.721 18.13 39.6788 18.352 38.6366 18.426C37.8921 18.5 36.9988 18.5 36.3288 18.13C37.2221 19.98 38.7855 19.832 39.5299 19.536Z" fill="#FFE000"/>
<path d="M35.51 22.94C35.4355 23.754 35.2866 24.716 35.6588 25.234C35.8077 24.716 36.0311 24.124 36.2544 23.68C36.3288 24.42 36.5522 25.086 36.9988 25.752C37.0733 25.16 37.2222 24.642 37.4455 24.124C37.4455 24.864 37.5944 25.604 38.0411 26.196C38.0411 25.53 38.1155 24.938 38.4133 24.346C38.2644 23.902 38.19 23.236 38.4877 22.348C38.0411 22.644 37.6688 23.088 37.3711 23.458L36.9244 24.124L36.7755 23.31C36.7011 22.866 36.7755 22.422 36.9244 21.978C36.2544 22.348 35.2122 22.274 35.0633 22.274C34.4677 22.866 33.9466 23.606 33.5744 24.42C34.2444 24.198 34.9888 23.532 35.51 22.94Z" fill="#FFE000"/>
<path d="M39.3811 29.4521L39.0833 29.5261C39.0089 29.5261 38.9344 29.5261 38.86 29.5261C38.6366 29.5261 38.3389 29.4521 38.1155 29.3781C38.1155 29.4521 38.0411 29.5261 38.0411 29.6001C39.8277 29.9701 40.4977 31.0801 41.0933 32.0421C41.2422 32.3381 41.4655 32.6341 41.6144 32.8561C41.8377 32.8561 41.9866 32.7821 42.21 32.7081C41.1677 32.2641 41.2422 30.4141 39.3811 29.4521Z" fill="#FFE000"/>
<path d="M54.1956 27.602C56.8011 26.122 59.2578 23.68 59.2578 19.98C58.5878 20.868 57.9178 21.534 57.2478 22.2C56.3544 23.68 55.0144 24.79 53.6 25.678C53.1533 26.714 52.1855 27.454 50.7711 28.046H50.6967C51.8133 27.75 53.0044 27.38 54.0467 26.566L54.7167 26.048L54.4933 26.936C54.4189 27.084 54.27 27.306 54.1956 27.602Z" fill="#FFE000"/>
<path d="M58.5133 23.532C59.0344 23.088 59.5555 22.57 60.0766 21.978L60.6722 21.312V22.2C60.5978 23.384 60.3 24.568 59.7044 25.604C61.3422 23.606 62.7566 21.756 61.9378 17.834C61.7889 18.13 61.64 18.426 61.4911 18.722C61.1189 20.128 60.4489 21.386 59.4811 22.57L58.5133 23.532Z" fill="#FFE000"/>
<path d="M52.5578 42.92C52.1111 42.402 51.2922 41.958 50.3989 41.44C48.6867 41.218 46.9744 40.626 45.0389 39.59C45.4855 40.108 45.8578 40.922 45.8578 41.588V41.662C47.4955 42.698 49.1333 43.512 51.0689 43.734C51.5155 43.438 52.0367 43.142 52.5578 42.92Z" fill="#FFE000"/>
<path d="M47.57 45.584C47.2722 45.436 46.9744 45.288 46.6766 45.14C46.7511 45.436 46.7511 45.732 46.8255 45.954C47.1233 45.88 47.3466 45.732 47.57 45.584Z" fill="#FFE000"/>
<path d="M44.8155 47.138C44.5177 46.842 44.22 46.546 43.9222 46.25C43.9966 46.768 43.9966 47.212 43.9222 47.582C44.22 47.434 44.5177 47.286 44.8155 47.138Z" fill="#FFE000"/>
<path d="M41.0933 49.0621C41.5399 48.8401 41.9866 48.5441 42.5077 48.3221C42.1355 47.8781 41.7633 47.5081 41.4655 47.0641C41.391 47.8781 41.3166 48.5441 41.0933 49.0621Z" fill="#FFE000"/>
<path d="M49.6544 44.474C49.431 44.178 49.2077 43.882 48.9099 43.586C47.7188 43.216 46.6766 42.55 45.5599 41.884H45.4855C45.3366 41.884 45.2621 41.884 45.1133 41.884C44.4433 41.884 43.6988 41.662 43.1033 41.292C43.1033 41.44 43.0288 41.514 43.0288 41.662C44.4433 43.29 45.9321 44.696 47.9421 45.436C48.5377 45.066 49.1333 44.77 49.6544 44.474Z" fill="#FFE000"/>
<path d="M46.5278 46.176C46.5278 45.806 46.4533 45.436 46.3044 44.992C45.0389 44.252 43.9222 43.216 42.9544 42.032C42.8055 42.476 42.6566 42.92 42.5078 43.364C43.1033 44.77 43.9222 45.954 45.1133 46.99C45.56 46.694 46.0811 46.472 46.5278 46.176Z" fill="#FFE000"/>
<path d="M43.55 45.806C43.0289 45.14 42.6567 44.4 42.3589 43.66C41.9867 44.4 41.54 45.066 40.9445 45.658C41.3911 46.546 41.9867 47.36 42.7311 48.174C43.0289 48.026 43.3267 47.878 43.6245 47.73C43.6989 47.212 43.6245 46.546 43.55 45.806Z" fill="#FFE000"/>
<path d="M41.0934 46.62C40.9445 46.398 40.7956 46.176 40.7211 45.954C40.4234 46.25 40.1256 46.546 39.7534 46.768V47.878V48.1C40.0511 48.47 40.3489 48.84 40.6467 49.21C41.0189 48.618 41.1678 47.73 41.0934 46.62Z" fill="#FFE000"/>
<path d="M38.6366 48.174C38.4133 48.47 38.2644 48.84 37.9666 49.062C38.1899 49.432 38.4877 49.876 38.7855 50.246C39.0088 50.098 39.2322 50.024 39.4555 49.876C39.6044 49.506 39.7533 49.136 39.8277 48.618C39.6788 48.47 39.53 48.248 39.4555 48.1H38.6366V48.174Z" fill="#FFE000"/>
<path d="M37.7433 49.2841C37.2967 49.7281 36.7755 50.1721 36.18 50.4681C36.4778 50.6901 36.7755 50.9121 37.0733 51.1341C37.4455 50.9121 37.8922 50.7641 38.2644 50.5421C38.2644 50.3201 38.19 50.1721 38.1155 49.9501C37.9667 49.7281 37.8922 49.5061 37.7433 49.2841Z" fill="#FFE000"/>
<path d="M36.6266 51.356C36.6266 51.282 36.6266 51.208 36.6266 51.208C36.4032 51.06 36.1055 50.838 35.8821 50.616C35.361 50.838 34.7655 50.986 34.0955 51.06C34.3188 51.504 34.5421 51.874 34.8399 52.244C35.4355 51.948 36.031 51.652 36.6266 51.356Z" fill="#FFE000"/>
<path d="M33.7977 51.0601C33.7233 51.0601 33.6488 51.0601 33.6488 51.0601H33.2766C33.2022 51.0601 33.1277 51.0601 33.1277 51.0601C32.9788 51.4301 32.6811 51.8001 32.5322 52.1701L33.3511 52.5401C33.4255 52.3921 33.4999 52.1701 33.4999 52.0221C33.5744 52.3181 33.6488 52.5401 33.7233 52.8361C34.021 52.6881 34.3188 52.5401 34.6166 52.3921C34.3188 51.9481 34.0211 51.5041 33.7977 51.0601Z" fill="#FFE000"/>
<path d="M30.2988 51.282L30.8199 51.504L30.9688 51.43L32.1599 52.022C32.3833 51.726 32.6066 51.356 32.7555 51.06C32.1599 50.986 31.5644 50.838 30.9688 50.616C30.8199 50.764 30.5222 51.134 30.2988 51.282Z" fill="#FFE000"/>
<path d="M30.7455 50.4681C30.15 50.1721 29.6289 49.8021 29.1822 49.2841C29.0333 49.5061 28.9589 49.7281 28.81 49.8761C28.81 50.0241 28.6611 50.3201 28.6611 50.3941L30.0755 51.0601C30.2244 50.9861 30.5222 50.6161 30.7455 50.4681Z" fill="#FFE000"/>
<path d="M28.2888 48.1741H27.5444C27.3955 48.3221 27.3211 48.5441 27.1722 48.6921C27.1722 49.0621 27.2466 49.5801 27.3211 49.8021L28.2888 50.2461C28.5122 49.9501 28.8844 49.3581 29.0333 49.0621C28.7355 48.7661 28.5122 48.4701 28.2888 48.1741Z" fill="#FFE000"/>
<path d="M27.2466 47.878V46.768C26.8744 46.472 26.5766 46.176 26.2788 45.88C26.1299 46.102 25.981 46.398 25.8321 46.62C25.7577 47.656 25.8321 48.692 26.1299 49.284L26.2788 49.358C26.5766 48.988 26.9488 48.396 27.1721 48.026V47.878H27.2466Z" fill="#FFE000"/>
<path d="M24.6411 43.5861C24.2689 44.3261 23.8967 45.0661 23.3755 45.8061C23.3011 46.5461 23.2267 47.2121 23.3011 47.7301L24.2689 48.1741C25.0133 47.3601 25.6089 46.5461 26.0555 45.6581C25.46 44.9921 25.0133 44.3261 24.6411 43.5861Z" fill="#FFE000"/>
<path d="M23.9711 41.958C22.9288 43.142 21.8122 44.252 20.5466 44.992C20.3977 45.51 20.2488 46.102 20.2488 46.546L21.7377 47.212C23.0033 46.176 23.8966 44.622 24.4922 43.216C24.2688 42.846 24.1199 42.402 23.9711 41.958Z" fill="#FFE000"/>
<path d="M23.8967 41.588C23.8967 41.514 23.8222 41.366 23.8222 41.292C23.1522 41.662 22.4822 41.958 21.7378 41.958C21.5889 41.958 21.5144 41.958 21.3656 41.958H21.2911C20.2489 42.624 19.1322 43.216 17.9411 43.66C17.5689 44.104 17.0478 44.622 16.75 44.992L18.2389 45.732C20.6211 44.918 22.4078 43.364 23.8967 41.588Z" fill="#FFE000"/>
<path d="M49.7289 36.852C47.7933 33.892 45.3366 35.964 42.3588 34.114C42.1355 34.262 41.8377 34.262 41.4655 34.336C42.2844 35.446 42.8055 36.704 43.0288 37.962C43.9966 39.442 46.0066 39.664 47.9422 39.294C47.2722 38.184 46.3788 37.814 45.3366 37.592C44.1455 37.222 43.1777 36.778 42.88 35.52C43.9222 37.666 47.0489 37.37 49.7289 36.852Z" fill="#FFE000"/>
<path d="M45.4856 41.5881C45.4856 40.8481 44.89 39.8121 44.4433 39.5161C43.8478 39.2941 43.4756 38.9981 43.1778 38.5541C43.2522 38.9241 43.2522 39.2941 43.2522 39.5901C43.2522 40.0341 43.1778 40.5521 43.1033 40.9961C43.9222 41.4401 44.7411 41.6621 45.4856 41.5881Z" fill="#FFE000"/>
<path d="M22.4077 39.516C21.961 39.886 21.4399 40.848 21.3655 41.588C22.1844 41.662 22.9288 41.44 23.7477 40.922C23.6733 40.478 23.6733 40.034 23.6733 39.59C23.6733 39.22 23.6733 38.776 23.7477 38.406C23.4499 38.924 23.0777 39.22 22.4077 39.516Z" fill="#FFE000"/>
<path d="M21.44 37.592C20.3978 37.814 19.5044 38.258 18.8344 39.294C20.8444 39.664 22.9289 39.442 23.8967 37.814C24.12 36.556 24.7155 35.372 25.46 34.336C25.0878 34.336 24.79 34.262 24.5667 34.114C21.6633 35.964 19.1322 33.892 17.1967 36.852C19.8767 37.444 23.0033 37.74 23.9711 35.52C23.5989 36.778 22.6311 37.222 21.44 37.592Z" fill="#FFE000"/>
<path d="M39.7533 32.412C40.3488 32.856 40.8699 33.448 41.3166 33.966C41.7633 33.966 42.1355 33.892 42.5077 33.67C40.4977 33.3 40.8699 30.414 37.8177 29.822L37.7433 29.896C38.0411 30.192 38.3388 30.562 38.5622 31.006H39.4555H39.7533V31.302V32.412Z" fill="#FFE000"/>
<path d="M25.6833 34.04C26.1299 33.448 26.651 32.93 27.2466 32.486V31.376V31.08H27.5444H28.2888C28.5122 30.636 28.8099 30.266 29.1077 29.97L29.0333 29.896C25.981 30.562 26.3533 33.374 24.3433 33.744C24.7899 33.966 25.1622 34.04 25.6833 34.04Z" fill="#FFE000"/>
<path d="M29.1822 29.23C29.2566 29.378 29.3311 29.526 29.4055 29.674C29.7033 29.378 30.0011 29.156 30.3733 28.934C30.2989 28.786 30.2989 28.564 30.2989 28.342C29.9266 28.786 29.5544 29.082 29.1822 29.23Z" fill="#FFE000"/>
<path d="M36.701 28.416C36.701 28.638 36.6266 28.86 36.6266 29.008C36.9988 29.23 37.2966 29.452 37.5944 29.748C37.6688 29.6 37.7433 29.452 37.8177 29.304C37.371 29.082 36.9988 28.786 36.701 28.416Z" fill="#FFE000"/>
<path d="M32.4578 28.1941C32.5322 28.1941 32.6811 28.1941 32.7555 28.1941C32.7555 28.1201 32.6811 27.9721 32.6811 27.8981C32.6067 27.9721 32.5322 28.1201 32.4578 28.1941Z" fill="#FFE000"/>
<path d="M34.4678 28.1941C34.3933 28.1201 34.3189 27.9721 34.2444 27.8241C34.2444 27.9721 34.17 28.0461 34.17 28.1201C34.2444 28.1941 34.3933 28.1941 34.4678 28.1941Z" fill="#FFE000"/>
<path d="M38.0411 28.046C37.4455 27.898 36.7755 27.306 36.4033 26.714C36.2544 27.01 36.0311 27.306 35.8077 27.528L35.5844 27.75L35.3611 27.528C34.9144 27.01 34.6911 26.344 34.5422 25.678C34.2444 26.27 32.5322 26.27 32.3089 25.678C32.2344 26.27 32.0111 26.936 31.49 27.528L31.2666 27.75L31.0433 27.528C30.82 27.38 30.6711 27.084 30.4477 26.714C30.0011 27.306 29.3311 27.972 28.81 28.046L28.5866 28.12C28.4377 28.49 28.2144 28.86 27.9166 29.23C28.7355 29.378 29.9266 28.638 30.5222 27.528C30.5222 28.12 30.5222 28.49 30.5966 28.86C31.0433 28.638 31.49 28.416 32.0111 28.342C32.3089 27.972 32.6066 27.454 32.6811 26.788C32.83 27.528 32.9044 27.898 33.0533 28.194C33.1277 28.194 33.7233 28.194 33.7977 28.194C33.9466 27.898 34.0211 27.454 34.17 26.788C34.2444 27.454 34.5422 27.972 34.84 28.342C35.3611 28.49 35.8077 28.638 36.2544 28.86C36.3289 28.564 36.3289 28.194 36.3289 27.528C36.9989 28.638 38.1155 29.378 38.9344 29.23C38.6366 28.86 38.4133 28.49 38.2644 28.12L38.0411 28.046Z" fill="#FFE000"/>
<path d="M38.4133 47.878H39.4555V46.62C41.6144 44.992 43.0288 42.476 43.0288 39.59C43.0288 36.778 41.6144 34.188 39.4555 32.56V31.302H38.4133C37.52 29.6 35.7333 28.416 33.6488 28.416H33.2766C31.1922 28.416 29.4055 29.6 28.5122 31.302H27.5444V32.56C25.3855 34.188 23.9711 36.704 23.9711 39.59C23.9711 42.402 25.3855 44.992 27.5444 46.62V47.878H28.5122C29.4055 49.58 31.1922 50.764 33.2766 50.764H33.6488C35.7333 50.764 37.52 49.58 38.4133 47.878ZM33.6488 50.32H33.2766C31.4155 50.32 29.7777 49.284 28.8844 47.656L28.7355 47.434H27.9166V46.472L27.7677 46.324C25.6088 44.696 24.4177 42.254 24.4177 39.664C24.4177 37.074 25.6833 34.632 27.7677 33.004L27.9166 32.856V31.82H28.7355L28.8844 31.598C29.7777 29.97 31.4155 28.934 33.2766 28.934H33.6488C35.51 28.934 37.1477 29.97 38.0411 31.598L38.19 31.82H39.0088V32.782L39.1577 32.93C41.3166 34.558 42.5077 37 42.5077 39.59C42.5077 42.18 41.2422 44.622 39.1577 46.25L39.0088 46.398V47.36H38.19L38.0411 47.582C37.1477 49.284 35.51 50.32 33.6488 50.32Z" fill="#FFE000"/>
<path d="M38.19 20.7201C37.4455 21.6081 36.9989 22.4221 37.1477 23.3101C37.52 22.7181 38.0411 22.2001 38.86 21.7561C38.86 21.7561 39.2322 21.2381 39.53 21.1641C38.3389 22.6441 38.5622 23.9021 38.7855 24.3461C39.2322 23.0881 40.2744 22.4221 40.7211 22.2001C41.6889 21.7561 41.1677 20.0541 42.5822 19.2401C41.7633 19.0921 41.0189 19.0921 40.3489 19.6101C39.7533 20.0541 38.7111 20.5721 37.4455 19.9061C36.9244 20.7201 35.8077 21.8301 34.84 21.9781C35.6589 22.1261 36.9989 22.0521 38.19 20.7201ZM41.8377 19.3141C41.2422 20.1281 40.7955 19.7581 40.4977 19.6101C41.1677 19.3141 41.54 19.3881 41.8377 19.3141Z" fill="#FFE000"/>
<path d="M46.6767 63.196L46.23 63.64L46.6767 62.234C46.6767 62.234 45.1878 62.382 45.7833 63.64L45.8578 63.862C46.0067 64.232 46.3789 64.602 46.6767 64.75L46.9 64.898C47.1978 65.046 47.3467 64.898 47.1978 64.528L46.6767 63.196Z" fill="#FFE000"/>
<path d="M53.451 61.42L53.2277 61.346C52.9299 61.198 52.6322 61.346 52.4833 61.642L51.6644 63.344L52.3344 63.492L51.5155 63.64L51.2177 64.38C51.2177 64.38 52.0366 64.528 52.6322 63.566C52.781 63.344 53.0788 63.492 53.1533 63.344L53.6744 62.16C53.8233 61.864 53.7488 61.568 53.451 61.42Z" fill="#FFE000"/>
<path d="M49.6544 60.458C49.8033 60.162 49.6544 59.866 49.3566 59.718L49.1333 59.57C48.8355 59.422 48.5378 59.57 48.3889 59.866L47.9422 60.754C47.7933 61.05 48.0911 61.198 47.9422 61.494C47.7189 62.234 48.3144 63.122 48.3144 63.122L48.6122 62.382L48.6866 62.234L48.24 61.198L48.91 61.864L49.6544 60.458Z" fill="#FFE000"/>
<path d="M51.6644 61.198C51.7388 60.976 51.6644 60.6801 51.441 60.6061L51.0688 60.458C50.8455 60.384 50.5477 60.458 50.4733 60.68L49.6544 62.53C49.3566 63.196 49.6544 64.158 49.6544 64.158C50.101 63.862 50.4733 63.566 50.6966 62.974L50.101 62.9L51.1433 62.53L51.6644 61.198Z" fill="#FFE000"/>
</svg>
